<svg width="522" height="522" viewBox="0 0 522 522" fill="none" xmlns="http://www.w3.org/2000/svg">
<g filter="url(#filter0_bd_94_226)">
<circle cx="261" cy="261" r="241" fill="black" fill-opacity="0.02" shape-rendering="crispEdges"/>
</g>
<g filter="url(#filter1_bd_94_226)">
<circle cx="261" cy="261" r="215" fill="white" fill-opacity="0.5" shape-rendering="crispEdges"/>
</g>
<mask id="mask0_94_226" style="mask-type:alpha" maskUnits="userSpaceOnUse" x="10" y="12" width="500" height="500">
<rect x="10" y="12" width="500" height="500" fill="#D9D9D9"/>
</mask>
<g mask="url(#mask0_94_226)">
<path d="M504.149 330.707C498.873 327.639 495.086 327.576 492.79 330.457C490.431 333.338 489.314 338.222 489.314 345.048V381.996C489.314 389.009 488.693 394.833 487.39 399.467C486.086 404.289 483.914 407.671 480.934 409.675C478.017 411.742 474.044 412.243 469.016 411.303C464.113 410.426 457.968 407.796 450.643 403.538L447.167 401.471V372.352L451.574 374.919C456.85 377.988 460.326 378.364 462.064 376.172C463.927 373.98 464.858 369.471 464.858 362.645V330.081C464.858 321.564 465.665 314.864 467.34 309.979C468.954 305.032 472.244 301.901 477.148 300.523C472.244 293.447 468.954 286.433 467.34 279.607C465.727 272.781 464.92 265.141 464.92 256.624V224.06C464.92 217.235 463.989 211.598 462.126 207.277C460.388 203.019 456.85 199.324 451.636 196.256L447.229 193.688V164.569L450.705 166.635C458.03 170.894 464.175 175.465 469.078 180.287C474.106 185.172 478.079 190.307 480.996 195.817C484.038 201.328 486.21 207.215 487.452 213.54C488.755 219.677 489.376 226.252 489.376 233.266V270.214C489.376 277.039 490.555 283.302 492.852 288.875C495.211 294.449 498.997 298.832 504.211 301.838L504.149 330.707Z" fill="#C7C7C7"/>
<path d="M370.052 223.409C375.328 226.476 379.115 226.539 381.411 223.66C383.77 220.781 384.887 215.899 384.887 209.077V172.152C384.887 165.142 385.508 159.322 386.812 154.69C388.115 149.871 390.226 146.492 393.143 144.426C396.184 142.423 400.157 141.923 405.061 142.799C410.088 143.738 416.296 146.366 423.62 150.685L427.096 152.75V181.853L422.689 179.286C417.413 176.22 413.875 175.782 412.013 177.972C410.275 180.225 409.406 184.731 409.406 191.616V224.16C409.406 232.61 408.599 239.369 406.923 244.25C405.309 249.195 402.019 252.324 397.115 253.701C402.019 260.773 405.309 267.783 406.923 274.605C408.537 281.426 409.344 289.062 409.344 297.574V330.118C409.344 336.94 410.213 342.51 411.951 346.829C413.813 351.147 417.351 354.902 422.627 357.906L427.034 360.472V389.575L423.558 387.509C416.234 383.253 410.026 378.622 404.999 373.803C400.095 368.984 396.122 363.852 393.081 358.282C390.163 352.837 388.053 346.954 386.812 340.695C385.508 334.562 384.887 327.99 384.887 320.981V284.055C384.887 277.233 383.708 270.975 381.411 265.404C379.053 259.834 375.266 255.453 370.052 252.449V223.409Z" fill="#C7C7C7"/>
<path d="M451.637 273.273C451.637 282.516 446.139 286.898 439.366 282.994C432.594 279.09 427.096 268.413 427.096 259.17C427.096 249.928 432.594 245.545 439.366 249.45C446.218 253.354 451.637 264.031 451.637 273.273Z" fill="#B3B3B3"/>
<path d="M109.522 290.084L107.018 287.352V285.169L108.491 286.777V287.675L109.522 288.8V290.084Z" fill="#D1D4D6"/>
<path d="M428.851 480.407L425.393 478.332L425.305 477.306L428.763 479.382L428.851 480.407ZM421.934 476.256L418.476 474.181L418.389 473.155L421.847 475.231L421.934 476.256ZM415.017 472.105L411.558 470.029L411.471 469.004L414.929 471.079L415.017 472.105ZM408.1 467.954L404.642 465.878L404.554 464.853L408.013 466.928L408.1 467.954ZM401.183 463.803L397.725 461.727L397.638 460.702L401.096 462.777L401.183 463.803ZM394.266 459.651L390.807 457.576L390.72 456.55L394.178 458.626L394.266 459.651ZM387.349 455.5L383.891 453.425L383.803 452.399L387.262 454.475L387.349 455.5ZM380.432 451.349L376.974 449.274L376.887 448.248L380.345 450.324L380.432 451.349ZM373.515 447.197L370.057 445.122L369.969 444.097L373.428 446.172L373.515 447.197ZM366.598 443.047L363.14 440.971L363.053 439.946L366.511 442.021L366.598 443.047ZM359.681 438.895L356.222 436.819L356.135 435.794L359.593 437.87L359.681 438.895ZM352.764 434.744L349.306 432.668L349.218 431.643L352.677 433.719L352.764 434.744ZM345.846 430.592L342.388 428.517L342.301 427.492L345.759 429.567L345.846 430.592ZM338.93 426.441L335.471 424.366L335.384 423.341L338.842 425.416L338.93 426.441ZM332.012 422.29L328.554 420.214L328.466 419.189L331.925 421.264L332.012 422.29ZM325.095 418.139L321.637 416.063L321.55 415.038L325.008 417.113L325.095 418.139ZM318.179 413.988L314.721 411.912L314.633 410.887L318.092 412.963L318.179 413.988ZM311.261 409.836L307.803 407.761L307.716 406.735L311.174 408.811L311.261 409.836ZM304.345 405.685L300.886 403.61L300.799 402.584L304.257 404.66L304.345 405.685ZM297.428 401.534L293.97 399.459L293.882 398.434L297.341 400.509L297.428 401.534ZM290.51 397.383L287.052 395.307L286.965 394.282L290.423 396.357L290.51 397.383ZM283.594 393.232L280.135 391.156L280.048 390.131L283.506 392.206L283.594 393.232ZM276.676 389.08L273.218 387.005L273.13 385.979L276.589 388.055L276.676 389.08ZM269.759 384.929L266.301 382.854L266.214 381.828L269.672 383.904L269.759 384.929ZM262.843 380.778L259.384 378.702L259.296 377.677L262.755 379.752L262.842 380.778L262.843 380.778ZM255.925 376.627L252.467 374.551L252.38 373.526L255.838 375.601L255.925 376.627ZM249.009 372.476L245.55 370.4L245.463 369.375L248.921 371.45L249.009 372.476ZM242.091 368.324L238.633 366.249L238.545 365.223L242.004 367.299L242.091 368.324ZM235.174 364.173L231.716 362.098L231.629 361.072L235.087 363.148L235.174 364.173ZM228.258 360.022L224.799 357.947L224.712 356.921L228.17 358.997L228.258 360.022ZM221.34 355.871L217.882 353.795L217.794 352.77L221.253 354.845L221.34 355.871ZM214.423 351.72L210.965 349.644L210.878 348.619L214.336 350.694L214.423 351.72ZM207.506 347.568L204.048 345.493L203.96 344.467L207.419 346.543L207.506 347.568ZM200.589 343.417L197.131 341.342L197.044 340.316L200.502 342.392L200.589 343.417ZM193.672 339.265L190.213 337.19L190.126 336.165L193.584 338.24L193.672 339.265ZM186.755 335.114L183.297 333.039L183.209 332.014L186.668 334.089L186.755 335.114ZM179.838 330.964L176.38 328.888L176.293 327.863L179.751 329.938L179.838 330.964ZM172.921 326.812L169.462 324.736L169.375 323.711L172.833 325.787L172.921 326.812ZM166.004 322.661L162.546 320.585L162.458 319.56L165.917 321.636L166.004 322.661ZM159.086 318.509L155.628 316.434L155.541 315.409L158.999 317.484L159.086 318.509ZM152.17 314.358L148.712 312.283L148.624 311.258L152.083 313.333L152.17 314.358ZM145.253 310.207L141.795 308.132L141.708 307.107L145.166 309.182L145.253 310.207ZM138.336 306.056L134.877 303.98L134.79 302.955L138.248 305.03L138.336 306.056ZM131.419 301.905L127.961 299.829L127.873 298.804L131.332 300.88L131.419 301.905ZM124.501 297.753L121.043 295.678L120.956 294.652L124.414 296.728L124.501 297.753ZM117.585 293.602L114.126 291.527L114.039 290.501L117.497 292.577L117.585 293.602Z" fill="#D1D4D6"/>
<path d="M439.772 485.955L437.268 483.223V481.939L438.299 483.064V482.165L439.772 483.772V485.955Z" fill="#D1D4D6"/>
<path d="M439.772 485.705L438.299 482.919V480.476L439.772 483.262V485.705ZM439.772 480.818L438.299 478.032V475.589L439.772 478.374V480.818ZM439.772 475.931L438.299 473.146V470.702L439.772 473.487V475.931ZM439.772 471.044L438.299 468.259V465.815L439.772 468.601V471.044ZM439.772 466.158L438.299 463.372V460.929L439.772 463.715V466.158ZM439.772 461.271L438.299 458.485V456.042L439.772 458.828V461.271ZM439.772 456.384L438.299 453.599V451.156L439.772 453.941V456.384ZM439.772 451.498L438.299 448.712V446.269L439.772 449.055V451.498ZM439.772 446.611L438.299 443.825V441.382L439.772 444.168V446.611ZM439.772 441.724L438.299 438.939V436.496L439.772 439.281V441.724Z" fill="#D1D4D6"/>
<path d="M439.772 411.813L438.299 410.207V409.308L437.268 408.183V406.899L439.772 409.63V411.813Z" fill="#D1D4D6"/>
<path d="M433.956 406.599L430.642 404.322V403.16L433.956 405.437V406.599ZM427.329 402.045L424.016 399.768V398.607L427.329 400.884V402.045ZM420.703 397.492L417.39 395.215V394.054L420.703 396.331V397.492ZM414.076 392.938L410.762 390.661V389.5L414.076 391.777V392.938ZM407.45 388.385L404.136 386.108V384.946L407.45 387.223V388.385ZM400.824 383.831L397.51 381.554V380.393L400.824 382.67V383.831Z" fill="#D1D4D6"/>
<path d="M441.756 437.911L440.283 435.048V430.708L441.756 433.571V437.911ZM441.756 429.23L440.283 426.367V422.027L441.756 424.89V429.23ZM441.756 420.55L440.283 417.687V413.347L441.756 416.21V420.55ZM441.756 411.869L440.283 409.006V404.666L441.756 407.529V411.869ZM441.756 403.188L440.283 400.324V395.985L441.756 398.848V403.188ZM441.756 394.508L440.283 391.645V387.303L441.756 390.167V394.508ZM441.756 385.827L440.283 382.963V378.622L441.756 381.486V385.827ZM441.756 377.146L440.283 374.282V369.942L441.756 372.806V377.146ZM441.756 368.466L440.283 365.602V361.262L441.756 364.126V368.466ZM441.756 359.785L440.283 356.921V352.581L441.756 355.445V359.785ZM441.756 351.103L440.283 348.24V343.9L441.756 346.763V351.103ZM441.756 342.424L440.283 339.56V335.22L441.756 338.084V342.424ZM441.756 333.742L440.283 330.879V326.538L441.756 329.401V333.742ZM441.756 325.061L440.283 322.198V317.858L441.756 320.721V325.061ZM441.756 316.38L440.283 313.517V309.177L441.756 312.04V316.38Z" fill="#D1D4D6"/>
<path d="M394.478 203.419L390.696 201.382L390.494 200.146L394.277 202.183L394.478 203.419ZM386.913 199.344L383.13 197.306L382.929 196.07L386.712 198.108L386.913 199.344ZM379.348 195.269L375.565 193.231L375.364 191.995L379.146 194.033L379.348 195.269ZM371.781 191.193L367.999 189.155L367.797 187.919L371.58 189.957L371.781 191.193ZM364.216 187.118L360.434 185.08L360.232 183.844L364.015 185.882L364.216 187.118ZM356.65 183.042L352.867 181.004L352.666 179.768L356.448 181.806L356.65 183.042ZM349.085 178.966L345.302 176.929L345.101 175.693L348.883 177.73L349.085 178.966ZM341.518 174.891L337.736 172.853L337.534 171.617L341.317 173.655L341.518 174.891ZM333.953 170.815L330.17 168.778L329.969 167.542L333.752 169.579L333.953 170.815ZM326.388 166.74L322.605 164.702L322.404 163.466L326.186 165.504L326.388 166.74ZM318.821 162.664L315.039 160.627L314.837 159.391L318.62 161.428L318.821 162.664ZM311.256 158.589L307.473 156.551L307.272 155.315L311.055 157.353L311.256 158.589ZM303.691 154.514L299.908 152.476L299.707 151.24L303.489 153.278L303.691 154.514ZM296.124 150.438L292.342 148.4L292.14 147.164L295.923 149.202L296.124 150.438ZM288.559 146.363L284.777 144.325L284.575 143.089L288.358 145.127L288.559 146.363ZM280.993 142.287L277.21 140.249L277.009 139.013L280.791 141.051L280.993 142.287ZM273.428 138.211L269.645 136.174L269.444 134.938L273.226 136.975L273.428 138.211ZM265.862 134.136L262.08 132.098L261.878 130.862L265.661 132.9L265.862 134.136ZM258.296 130.06L254.513 128.023L254.312 126.787L258.095 128.824L258.296 130.06ZM250.731 125.985L246.948 123.947L246.747 122.711L250.529 124.749L250.731 125.985ZM243.164 121.909L239.382 119.871L239.18 118.635L242.963 120.673L243.164 121.909ZM235.599 117.834L231.816 115.796L231.615 114.56L235.398 116.598L235.599 117.834ZM228.034 113.759L224.251 111.721L224.05 110.485L227.832 112.523L228.034 113.759ZM220.468 109.683L216.685 107.645L216.483 106.409L220.266 108.447L220.468 109.683ZM212.902 105.607L209.12 103.57L208.918 102.334L212.701 104.371L212.902 105.607ZM205.336 101.532L201.553 99.4939L201.352 98.2579L205.134 100.296L205.336 101.532ZM197.771 97.4562L193.988 95.4186L193.787 94.1826L197.569 96.2202L197.771 97.4562ZM190.204 93.3804L186.422 91.3427L186.22 90.1067L190.003 92.1444L190.204 93.3804ZM182.639 89.3051L178.856 87.2675L178.655 86.0315L182.438 88.0691L182.639 89.3051ZM175.074 85.2298L171.291 83.1922L171.09 81.9562L174.872 83.9938L175.074 85.2298ZM167.507 81.154L163.725 79.1163L163.523 77.8803L167.306 79.918L167.507 81.154ZM159.942 77.0787L156.16 75.041L155.958 73.805L159.741 75.8427L159.942 77.0787ZM152.376 73.0028L148.593 70.9652L148.392 69.7292L152.174 71.7668L152.376 73.0028ZM144.811 68.9275L141.028 66.8899L140.827 65.6539L144.609 67.6915L144.811 68.9275ZM137.245 64.8523L133.463 62.8146L133.261 61.5786L137.044 63.6163L137.245 64.8523Z" fill="#D1D4D6"/>
<path d="M108.489 255.998L107.016 253.489V249.435L108.489 251.945V255.998ZM108.489 247.892L107.016 245.383V241.33L108.489 243.839V247.892ZM108.489 239.785L107.016 237.276V233.223L108.489 235.732V239.785ZM108.489 231.678L107.016 229.169V225.116L108.489 227.625V231.678ZM108.546 223.832L107.099 221.052L107.757 218.192L109.204 220.97L108.546 223.832ZM109.863 218.111L108.416 215.333L109.075 212.472L110.522 215.252L109.863 218.111ZM111.179 212.388L109.733 209.61L110.392 206.75L111.838 209.528L111.179 212.388ZM112.497 206.667L111.049 203.887L111.708 201.027L113.155 203.805L112.497 206.667ZM113.813 200.946L112.366 198.166L113.025 195.305L114.472 198.085L113.813 200.946ZM115.13 195.223L113.684 192.445L114.342 189.584L115.79 192.365L115.13 195.223ZM116.448 189.502L115 186.722L115.659 183.862L117.105 186.64L116.448 189.502ZM117.764 183.781L116.317 181.001L116.975 178.14L118.423 180.92L117.764 183.781ZM119.081 178.058L117.634 175.28L118.109 173.221V172.243L119.582 174.753L119.568 175.944L119.081 178.058ZM119.581 170.697L118.107 168.188V164.135L119.581 166.644V170.697ZM119.581 162.59L118.107 160.081V156.028L119.581 158.537V162.59ZM119.581 154.485L118.107 151.976V147.922L119.581 150.431V154.485ZM119.581 146.378L118.107 143.869V139.815L119.581 142.324V146.378ZM119.581 138.271L118.107 135.762V131.708L119.581 134.217V138.271ZM119.581 130.164L118.107 127.655V123.601L119.581 126.11V130.164ZM119.581 122.057L118.107 119.548V115.494L119.581 118.003V122.057ZM119.581 113.95L118.107 111.441V107.387L119.581 109.896V113.95ZM119.581 105.844L118.107 103.335V99.2814L119.581 101.791V105.844ZM119.581 97.7371L118.107 95.2279V91.1744L119.581 93.6836V97.7371ZM120.243 91.4484L118.987 88.4259L120.833 88.1159L122.089 91.1385L120.243 91.4484ZM123.936 90.8285L122.68 87.806L124.526 87.4949L125.782 90.5174L123.936 90.8285ZM127.629 90.2075L126.373 87.1849L128.219 86.875L129.475 89.8975L127.629 90.2075ZM131.322 89.5864L130.066 86.5639L131.912 86.2539L133.168 89.2764L131.322 89.5864Z" fill="#D1D4D6"/>
<path d="M141.78 56.8319C131.914 58.7517 109.727 61.2304 100.055 55.7627C100.128 94.45 109.605 149.346 140.589 194.619C172.059 184.68 182.387 141.011 183.116 102.785C173.444 97.2933 151.525 69.8573 141.78 56.8319Z" fill="white"/>
<path d="M129.727 64.8517C119.861 66.7715 97.6737 69.2502 88.0018 63.7825C88.0747 102.47 97.5521 157.366 128.536 202.639C160.006 192.7 170.334 149.006 171.063 110.805C161.391 105.313 139.472 77.8771 129.727 64.8517Z" fill="#DCDCDC"/>
<path d="M171.557 110.529C161.86 105.037 139.965 77.6252 130.22 64.5999L129.03 202.363C160.475 192.448 170.803 148.755 171.557 110.529Z" fill="#B0B0B0"/>
<path d="M182.598 208.623L29.3592 120.201L29.4158 200.075L169.125 280.686L182.655 300.725L182.598 208.623Z" fill="white"/>
<path opacity="0.5" d="M13 151.336V129.655L70.8538 163.054V184.735L13 151.336Z" fill="#B8B8B8"/>
<path opacity="0.15" d="M143.2 205.34L109.631 185.98V192.999L143.2 212.359V205.34Z" fill="#8289E8"/>
<path opacity="0.15" d="M143.199 219.379L78.4961 182.018V189.037L143.199 226.399V219.379Z" fill="#8289E8"/>
<path opacity="0.15" d="M143.199 233.418L64.7968 188.131V195.151L143.199 240.438V233.418Z" fill="#8289E8"/>
<path opacity="0.5" d="M151.465 217.398C151.465 223.964 155.371 231.55 160.182 234.324C164.994 237.097 168.9 233.984 168.9 227.417C168.9 220.851 164.994 213.265 160.182 210.491C155.371 207.774 151.465 210.831 151.465 217.398Z" fill="#B8B8B8"/>
<rect x="194.848" y="315.319" width="170.418" height="29.5783" transform="rotate(27.7073 194.848 315.319)" fill="#F6F6F6"/>
<path d="M281.928 271.817C283.772 274.543 285.668 277.631 286.882 280.657C286.875 280.821 286.868 280.985 286.86 281.154C285.599 280.288 284.408 279.342 283.202 278.304C277.876 273.73 272.198 271.299 266.873 271.573C264.38 271.769 262.339 272.613 260.349 273.865C260.16 273.98 259.972 274.095 259.778 274.214C256.863 276.16 254.753 279.242 252.593 282.158C251.89 283.103 251.177 284.038 250.466 284.975C248.819 287.148 247.185 289.336 245.553 291.527C245.079 292.162 244.604 292.796 244.128 293.43C243.363 294.45 242.6 295.472 241.84 296.497C241.576 296.852 241.312 297.207 241.047 297.562C238.241 301.11 238.241 301.11 237.696 306.353C238.124 308.685 238.922 310.643 240.506 312.63C241.161 313.27 241.161 313.27 241.844 313.508C242.935 313.348 243.515 312.955 244.172 312.079C244.253 311.973 244.335 311.866 244.419 311.757C244.589 311.533 244.759 311.308 244.927 311.082C245.324 310.547 245.731 310.024 246.136 309.498C246.381 309.175 246.626 308.852 246.871 308.528C247.32 307.935 247.769 307.343 248.219 306.751C248.311 306.63 248.403 306.51 248.497 306.385C249.429 305.159 250.37 303.943 251.311 302.727C254.685 298.362 258.046 293.981 261.157 289.321C263.778 285.406 263.778 285.406 265.623 284.203C265.813 284.055 265.813 284.055 266.007 283.905C269.029 281.72 273.593 281.925 277.779 283.571C282.691 285.596 287.014 289.386 290.621 294.598C290.746 294.767 290.872 294.937 291.002 295.111C293.658 298.783 295.19 303.394 296.796 307.478C297.068 308.168 297.342 308.856 297.617 309.545C300.09 315.718 302.434 321.913 304.727 328.116C304.86 328.475 304.993 328.834 305.126 329.193C305.954 331.43 306.777 333.668 307.597 335.907C307.865 336.641 308.135 337.375 308.406 338.109C311.267 345.876 311.267 345.876 312.042 349.316C312.084 349.502 312.126 349.687 312.17 349.878C313.821 357.267 314.349 365.124 311.288 370.166C310.481 371.344 309.565 372.261 308.464 373.057C308.326 373.163 308.189 373.27 308.047 373.38C303.666 376.445 297.034 375.314 291.213 374.154C291.083 373.512 291.083 373.512 291.044 372.804C291.336 372.487 291.336 372.487 291.775 372.277C291.935 372.197 292.094 372.116 292.258 372.033C292.431 371.952 292.603 371.872 292.781 371.788C293.13 371.611 293.479 371.433 293.827 371.253C293.996 371.167 294.165 371.081 294.34 370.993C298.317 368.903 301.085 364.519 301.58 358.883C301.908 354.021 301.068 349.247 299.437 343.942C299.365 343.708 299.293 343.475 299.219 343.234C297.956 339.186 296.373 335.197 294.779 331.193C294.027 329.301 293.294 327.407 292.561 325.512C291.225 322.059 289.864 318.613 288.47 315.172C287.995 313.998 287.528 312.823 287.068 311.646C286.762 310.865 286.454 310.085 286.146 309.304C286 308.93 285.854 308.556 285.709 308.182C284.354 304.68 282.784 300.902 279.897 298.487C278.314 297.301 276.921 296.858 275.381 296.888C274.739 296.976 274.739 296.976 274.438 297.464C274.385 299.222 275.102 300.906 275.794 302.75C275.915 303.078 276.036 303.405 276.16 303.742C276.518 304.712 276.879 305.68 277.241 306.649C277.42 307.134 277.6 307.618 277.779 308.102C278.022 308.759 278.265 309.416 278.51 310.072C279.213 311.963 279.895 313.856 280.578 315.75C281.78 319.082 283.023 322.406 284.281 325.73C284.606 326.593 284.928 327.455 285.248 328.318C286.197 330.868 287.157 333.413 288.183 335.95C288.261 336.143 288.339 336.336 288.419 336.534C288.8 337.475 289.183 338.416 289.569 339.355C292.337 346.156 293.484 352.379 291.922 358.071C290.383 362.794 287.562 365.723 283.114 366.465C279.765 366.872 276.483 365.758 272.843 364.311C272.559 364.2 272.276 364.09 271.983 363.976C267.881 362.355 263.78 360.397 259.684 358.487C259.482 358.394 259.281 358.3 259.073 358.203C253.492 355.604 247.93 352.925 242.372 349.996C242.106 349.855 241.839 349.715 241.565 349.57C238.884 348.153 236.209 346.695 233.536 345.207C233.319 345.087 233.103 344.967 232.88 344.844C228.639 342.464 224.97 339.265 221.63 334.821C221.49 334.64 221.351 334.458 221.207 334.271C217.503 329.162 215.779 322.453 215.384 316.997C215.158 311.324 216.481 306.246 218.721 302.209C219.485 303.25 219.531 304.075 219.692 305.219C220.511 310.591 221.799 316.072 224.754 321.287C225 321.726 225 321.726 225.251 322.174C229.907 330.199 236.517 334.059 243.231 337.437C243.507 337.576 243.784 337.716 244.068 337.859C250.393 341.002 256.736 343.809 263.075 346.604C264.18 347.091 265.286 347.582 266.391 348.073C267.256 348.457 268.122 348.839 268.987 349.22C269.395 349.4 269.803 349.581 270.21 349.763C274.677 351.842 274.677 351.842 278.686 351.537C279.859 350.657 280.286 349.251 280.556 347.519C280.487 346.591 280.248 346.204 279.648 345.379C278.833 344.687 278.055 344.326 277.192 343.904C276.915 343.767 276.915 343.767 276.633 343.628C276.017 343.324 275.4 343.021 274.783 342.719C274.345 342.504 273.907 342.289 273.47 342.073C272.29 341.493 271.109 340.915 269.929 340.337C269.196 339.978 268.463 339.618 267.73 339.258C262.646 336.764 257.563 334.288 252.472 331.929C252.282 331.841 252.092 331.753 251.896 331.662C250.118 330.838 248.34 330.019 246.562 329.212C245.92 328.92 245.278 328.626 244.637 328.331C244.212 328.137 243.786 327.947 243.361 327.757C240.38 326.385 237.684 324.47 235.054 321.774C234.753 321.474 234.753 321.474 234.447 321.168C232.702 319.351 231.405 317.327 230.074 315.13C229.915 314.876 229.755 314.621 229.591 314.359C226.694 309.483 225.699 303.789 225.914 299.092C226.347 291.532 230.931 286.72 234.533 281.891C234.669 281.708 234.806 281.525 234.946 281.337C237.453 277.985 240.021 274.705 242.612 271.451C242.697 271.344 242.783 271.236 242.872 271.125C243.307 270.578 243.743 270.032 244.179 269.488C245.028 268.429 245.866 267.361 246.685 266.268C248.401 263.99 250.135 261.991 252.455 260.525C252.656 260.395 252.656 260.395 252.861 260.263C261.458 254.833 273.254 259.259 281.928 271.817ZM265.987 306.988C264.827 308.075 263.896 309.453 262.951 310.796C261.089 313.412 259.168 315.957 257.227 318.484C256.993 318.79 256.993 318.79 256.753 319.103C256.61 319.29 256.466 319.478 256.318 319.671C255.985 320.031 255.985 320.031 255.989 320.363C262.069 323.2 268.149 326.038 274.414 328.962C274.139 327.945 273.875 327.071 273.5 326.076C273.395 325.799 273.291 325.522 273.184 325.237C273.071 324.94 272.958 324.643 272.842 324.337C272.724 324.026 272.607 323.714 272.486 323.393C271.396 320.517 270.286 317.645 269.17 314.774C268.708 313.584 268.25 312.394 267.797 311.203C267.692 310.928 267.587 310.653 267.479 310.369C267.281 309.851 267.085 309.333 266.889 308.815C266.67 308.24 266.442 307.666 266.212 307.093C266.138 307.058 266.063 307.023 265.987 306.988Z" fill="#6F74C3"/>
<path d="M278.689 272.424C280.556 275.174 282.477 278.29 283.707 281.342C283.7 281.507 283.692 281.673 283.685 281.844C282.408 280.968 281.201 280.012 279.981 278.963C274.587 274.341 268.838 271.879 263.447 272.143C260.922 272.335 258.857 273.181 256.842 274.437C256.651 274.553 256.46 274.669 256.264 274.789C253.314 276.742 251.177 279.844 248.992 282.777C248.28 283.728 247.558 284.669 246.838 285.611C245.171 287.797 243.518 289.999 241.866 292.202C241.386 292.841 240.905 293.479 240.424 294.117C239.649 295.143 238.877 296.171 238.107 297.202C237.84 297.56 237.573 297.917 237.305 298.273C234.464 301.842 234.464 301.842 233.914 307.125C234.348 309.475 235.156 311.45 236.761 313.456C237.424 314.103 237.424 314.103 238.115 314.344C239.219 314.185 239.807 313.79 240.472 312.91C240.554 312.802 240.637 312.695 240.722 312.585C240.894 312.36 241.066 312.134 241.236 311.906C241.638 311.368 242.05 310.842 242.46 310.313C242.708 309.988 242.956 309.663 243.204 309.337C243.658 308.74 244.113 308.145 244.568 307.549C244.661 307.428 244.754 307.307 244.85 307.182C245.793 305.948 246.745 304.725 247.698 303.502C251.112 299.111 254.514 294.704 257.664 290.015C260.317 286.076 260.317 286.076 262.184 284.868C262.376 284.719 262.376 284.719 262.572 284.568C265.632 282.374 270.252 282.59 274.491 284.258C279.465 286.31 283.842 290.139 287.495 295.399C287.622 295.57 287.75 295.741 287.881 295.917C290.571 299.623 292.123 304.273 293.75 308.392C294.025 309.088 294.302 309.782 294.582 310.477C297.086 316.703 299.461 322.951 301.784 329.207C301.919 329.569 302.054 329.931 302.188 330.293C303.027 332.549 303.861 334.806 304.691 337.064C304.963 337.804 305.237 338.545 305.511 339.285C308.409 347.119 308.409 347.119 309.195 350.587C309.237 350.774 309.28 350.96 309.324 351.153C310.997 358.603 311.534 366.522 308.435 371.595C307.619 372.781 306.692 373.703 305.577 374.502C305.438 374.609 305.298 374.716 305.155 374.826C300.72 377.905 294.006 376.75 288.112 375.568C287.98 374.921 287.98 374.921 287.94 374.208C288.236 373.889 288.236 373.889 288.68 373.678C288.842 373.598 289.003 373.517 289.169 373.434C289.344 373.353 289.518 373.272 289.698 373.188C290.052 373.01 290.405 372.831 290.757 372.651C290.929 372.565 291.1 372.479 291.277 372.39C295.303 370.294 298.105 365.882 298.604 360.203C298.935 355.304 298.084 350.492 296.431 345.143C296.359 344.907 296.286 344.671 296.211 344.429C294.931 340.347 293.328 336.323 291.713 332.285C290.951 330.377 290.209 328.466 289.466 326.555C288.113 323.073 286.734 319.597 285.322 316.126C284.84 314.942 284.367 313.757 283.901 312.57C283.592 311.783 283.28 310.995 282.968 310.208C282.819 309.831 282.672 309.454 282.525 309.076C281.153 305.544 279.562 301.734 276.639 299.294C275.035 298.095 273.626 297.646 272.066 297.672C271.416 297.759 271.416 297.759 271.111 298.251C271.059 300.021 271.784 301.72 272.486 303.58C272.608 303.911 272.73 304.241 272.856 304.581C273.219 305.559 273.584 306.536 273.951 307.513C274.133 308.001 274.315 308.49 274.496 308.978C274.743 309.641 274.989 310.303 275.236 310.965C275.949 312.872 276.64 314.781 277.331 316.691C278.549 320.052 279.808 323.404 281.083 326.757C281.412 327.626 281.738 328.496 282.062 329.366C283.024 331.938 283.997 334.505 285.036 337.064C285.115 337.258 285.194 337.453 285.275 337.653C285.661 338.602 286.049 339.55 286.44 340.498C289.243 347.358 290.406 353.631 288.826 359.363C287.268 364.119 284.414 367.064 279.911 367.801C276.52 368.204 273.197 367.074 269.511 365.608C269.224 365.496 268.937 365.384 268.641 365.269C264.487 363.626 260.335 361.643 256.187 359.71C255.983 359.615 255.778 359.52 255.568 359.422C249.918 356.79 244.286 354.078 238.658 351.113C238.388 350.971 238.118 350.829 237.84 350.683C235.126 349.249 232.417 347.774 229.711 346.268C229.492 346.147 229.272 346.025 229.046 345.9C224.752 343.493 221.037 340.261 217.654 335.775C217.513 335.592 217.372 335.409 217.226 335.22C213.475 330.063 211.728 323.299 211.327 317.8C211.097 312.083 212.435 306.969 214.703 302.906C215.476 303.957 215.522 304.788 215.685 305.941C216.516 311.356 217.821 316.882 220.815 322.144C221.064 322.587 221.064 322.587 221.317 323.039C226.034 331.136 232.726 335.041 239.525 338.461C239.805 338.601 240.084 338.742 240.372 338.887C246.776 342.069 253.199 344.911 259.618 347.743C260.737 348.236 261.856 348.733 262.976 349.231C263.851 349.619 264.727 350.006 265.604 350.392C266.017 350.575 266.43 350.758 266.843 350.942C271.365 353.047 271.365 353.047 275.424 352.749C276.612 351.865 277.043 350.449 277.317 348.704C277.247 347.769 277.005 347.379 276.396 346.546C275.571 345.846 274.783 345.481 273.909 345.054C273.63 344.915 273.63 344.915 273.344 344.774C272.72 344.467 272.095 344.16 271.47 343.854C271.027 343.636 270.584 343.419 270.141 343.201C268.946 342.613 267.751 342.028 266.555 341.443C265.813 341.079 265.071 340.715 264.329 340.351C259.181 337.826 254.035 335.32 248.88 332.931C248.687 332.842 248.495 332.753 248.297 332.661C246.496 331.826 244.696 330.996 242.895 330.18C242.245 329.884 241.596 329.586 240.946 329.287C240.516 329.091 240.085 328.898 239.654 328.706C236.636 327.317 233.906 325.381 231.243 322.658C230.938 322.355 230.938 322.355 230.628 322.046C228.861 320.211 227.547 318.168 226.199 315.952C226.038 315.695 225.877 315.438 225.71 315.174C222.776 310.254 221.767 304.514 221.984 299.781C222.421 292.164 227.06 287.326 230.707 282.467C230.845 282.283 230.983 282.099 231.125 281.91C233.662 278.538 236.261 275.239 238.883 271.966C238.97 271.857 239.057 271.749 239.147 271.637C239.587 271.087 240.028 270.538 240.47 269.99C241.329 268.925 242.177 267.851 243.006 266.752C244.743 264.46 246.498 262.45 248.847 260.978C249.05 260.847 249.05 260.847 249.258 260.715C257.961 255.262 269.904 259.749 278.689 272.424ZM262.557 307.828C261.383 308.921 260.441 310.308 259.484 311.659C257.6 314.291 255.655 316.851 253.691 319.393C253.453 319.701 253.453 319.701 253.211 320.016C253.066 320.204 252.92 320.393 252.77 320.587C252.433 320.949 252.433 320.949 252.437 321.284C258.594 324.157 264.751 327.03 271.094 329.99C270.815 328.965 270.548 328.084 270.167 327.08C270.062 326.801 269.956 326.522 269.848 326.234C269.733 325.935 269.619 325.635 269.502 325.327C269.382 325.012 269.263 324.698 269.14 324.375C268.037 321.474 266.912 318.578 265.782 315.682C265.314 314.482 264.85 313.281 264.39 312.08C264.284 311.802 264.178 311.525 264.068 311.239C263.868 310.717 263.669 310.194 263.471 309.671C263.249 309.091 263.018 308.513 262.785 307.934C262.71 307.899 262.635 307.864 262.557 307.828Z" fill="#CBFD13" fill-opacity="0.15"/>
<path d="M278.689 272.424C280.556 275.174 282.477 278.29 283.707 281.342C283.7 281.507 283.692 281.673 283.685 281.844C282.408 280.968 281.201 280.012 279.981 278.963C274.587 274.341 268.838 271.879 263.447 272.143C260.922 272.335 258.857 273.181 256.842 274.437C256.651 274.553 256.46 274.669 256.264 274.789C253.314 276.742 251.177 279.844 248.992 282.777C248.28 283.728 247.558 284.669 246.838 285.611C245.171 287.797 243.518 289.999 241.866 292.202C241.386 292.841 240.905 293.479 240.424 294.117C239.649 295.143 238.877 296.171 238.107 297.202C237.84 297.56 237.573 297.917 237.305 298.273C234.464 301.842 234.464 301.842 233.914 307.125C234.348 309.475 235.156 311.45 236.761 313.456C237.424 314.103 237.424 314.103 238.115 314.344C239.219 314.185 239.807 313.79 240.472 312.91C240.554 312.802 240.637 312.695 240.722 312.585C240.894 312.36 241.066 312.134 241.236 311.906C241.638 311.368 242.05 310.842 242.46 310.313C242.708 309.988 242.956 309.663 243.204 309.337C243.658 308.74 244.113 308.145 244.568 307.549C244.661 307.428 244.754 307.307 244.85 307.182C245.793 305.948 246.745 304.725 247.698 303.502C251.112 299.111 254.514 294.704 257.664 290.015C260.317 286.076 260.317 286.076 262.184 284.868C262.376 284.719 262.376 284.719 262.572 284.568C265.632 282.374 270.252 282.59 274.491 284.258C279.465 286.31 283.842 290.139 287.495 295.399C287.622 295.57 287.75 295.741 287.881 295.917C290.571 299.623 292.123 304.273 293.75 308.392C294.025 309.088 294.302 309.782 294.582 310.477C297.086 316.703 299.461 322.951 301.784 329.207C301.919 329.569 302.054 329.931 302.188 330.293C303.027 332.549 303.861 334.806 304.691 337.064C304.963 337.804 305.237 338.545 305.511 339.285C308.409 347.119 308.409 347.119 309.195 350.587C309.237 350.774 309.28 350.96 309.324 351.153C310.997 358.603 311.534 366.522 308.435 371.595C307.619 372.781 306.692 373.703 305.577 374.502C305.438 374.609 305.298 374.716 305.155 374.826C300.72 377.905 294.006 376.75 288.112 375.568C287.98 374.921 287.98 374.921 287.94 374.208C288.236 373.889 288.236 373.889 288.68 373.678C288.842 373.598 289.003 373.517 289.169 373.434C289.344 373.353 289.518 373.272 289.698 373.188C290.052 373.01 290.405 372.831 290.757 372.651C290.929 372.565 291.1 372.479 291.277 372.39C295.303 370.294 298.105 365.882 298.604 360.203C298.935 355.304 298.084 350.492 296.431 345.143C296.359 344.907 296.286 344.671 296.211 344.429C294.931 340.347 293.328 336.323 291.713 332.285C290.951 330.377 290.209 328.466 289.466 326.555C288.113 323.073 286.734 319.597 285.322 316.126C284.84 314.942 284.367 313.757 283.901 312.57C283.592 311.783 283.28 310.995 282.968 310.208C282.819 309.831 282.672 309.454 282.525 309.076C281.153 305.544 279.562 301.734 276.639 299.294C275.035 298.095 273.626 297.646 272.066 297.672C271.416 297.759 271.416 297.759 271.111 298.251C271.059 300.021 271.784 301.72 272.486 303.58C272.608 303.911 272.73 304.241 272.856 304.581C273.219 305.559 273.584 306.536 273.951 307.513C274.133 308.001 274.315 308.49 274.496 308.978C274.743 309.641 274.989 310.303 275.236 310.965C275.949 312.872 276.64 314.781 277.331 316.691C278.549 320.052 279.808 323.404 281.083 326.757C281.412 327.626 281.738 328.496 282.062 329.366C283.024 331.938 283.997 334.505 285.036 337.064C285.115 337.258 285.194 337.453 285.275 337.653C285.661 338.602 286.049 339.55 286.44 340.498C289.243 347.358 290.406 353.631 288.826 359.363C287.268 364.119 284.414 367.064 279.911 367.801C276.52 368.204 273.197 367.074 269.511 365.608C269.224 365.496 268.937 365.384 268.641 365.269C264.487 363.626 260.335 361.643 256.187 359.71C255.983 359.615 255.778 359.52 255.568 359.422C249.918 356.79 244.286 354.078 238.658 351.113C238.388 350.971 238.118 350.829 237.84 350.683C235.126 349.249 232.417 347.774 229.711 346.268C229.492 346.147 229.272 346.025 229.046 345.9C224.752 343.493 221.037 340.261 217.654 335.775C217.513 335.592 217.372 335.409 217.226 335.22C213.475 330.063 211.728 323.299 211.327 317.8C211.097 312.083 212.435 306.969 214.703 302.906C215.476 303.957 215.522 304.788 215.685 305.941C216.516 311.356 217.821 316.882 220.815 322.144C221.064 322.587 221.064 322.587 221.317 323.039C226.034 331.136 232.726 335.041 239.525 338.461C239.805 338.601 240.084 338.742 240.372 338.887C246.776 342.069 253.199 344.911 259.618 347.743C260.737 348.236 261.856 348.733 262.976 349.231C263.851 349.619 264.727 350.006 265.604 350.392C266.017 350.575 266.43 350.758 266.843 350.942C271.365 353.047 271.365 353.047 275.424 352.749C276.612 351.865 277.043 350.449 277.317 348.704C277.247 347.769 277.005 347.379 276.396 346.546C275.571 345.846 274.783 345.481 273.909 345.054C273.63 344.915 273.63 344.915 273.344 344.774C272.72 344.467 272.095 344.16 271.47 343.854C271.027 343.636 270.584 343.419 270.141 343.201C268.946 342.613 267.751 342.028 266.555 341.443C265.813 341.079 265.071 340.715 264.329 340.351C259.181 337.826 254.035 335.32 248.88 332.931C248.687 332.842 248.495 332.753 248.297 332.661C246.496 331.826 244.696 330.996 242.895 330.18C242.245 329.884 241.596 329.586 240.946 329.287C240.516 329.091 240.085 328.898 239.654 328.706C236.636 327.317 233.906 325.381 231.243 322.658C230.938 322.355 230.938 322.355 230.628 322.046C228.861 320.211 227.547 318.168 226.199 315.952C226.038 315.695 225.877 315.438 225.71 315.174C222.776 310.254 221.767 304.514 221.984 299.781C222.421 292.164 227.06 287.326 230.707 282.467C230.845 282.283 230.983 282.099 231.125 281.91C233.662 278.538 236.261 275.239 238.883 271.966C238.97 271.857 239.057 271.749 239.147 271.637C239.587 271.087 240.028 270.538 240.47 269.99C241.329 268.925 242.177 267.851 243.006 266.752C244.743 264.46 246.498 262.45 248.847 260.978C249.05 260.847 249.05 260.847 249.258 260.715C257.961 255.262 269.904 259.749 278.689 272.424ZM262.557 307.828C261.383 308.921 260.441 310.308 259.484 311.659C257.6 314.291 255.655 316.851 253.691 319.393C253.453 319.701 253.453 319.701 253.211 320.016C253.066 320.204 252.92 320.393 252.77 320.587C252.433 320.949 252.433 320.949 252.437 321.284C258.594 324.157 264.751 327.03 271.094 329.99C270.815 328.965 270.548 328.084 270.167 327.08C270.062 326.801 269.956 326.522 269.848 326.234C269.733 325.935 269.619 325.635 269.502 325.327C269.382 325.012 269.263 324.698 269.14 324.375C268.037 321.474 266.912 318.578 265.782 315.682C265.314 314.482 264.85 313.281 264.39 312.08C264.284 311.802 264.178 311.525 264.068 311.239C263.868 310.717 263.669 310.194 263.471 309.671C263.249 309.091 263.018 308.513 262.785 307.934C262.71 307.899 262.635 307.864 262.557 307.828Z" fill="#8289E8"/>
<path d="M495.874 468.87L370.374 349.156C365.769 344.763 362.035 338.349 360.191 333.069V273.525C362.035 271.765 365.769 272.474 370.374 276.866L495.874 396.581C500.478 400.973 504.21 407.386 504.21 410.906V470.45C504.21 473.97 500.478 473.263 495.874 468.87Z" fill="#E6E6E6"/>
<path d="M489.093 467.69L369.946 353.663C363.588 347.578 358.432 338.7 358.432 333.832V279.079C358.432 274.213 363.586 275.201 369.946 281.287L489.093 395.314C495.453 401.4 500.607 410.277 500.607 415.143V469.897C500.607 474.764 495.451 473.774 489.093 467.69Z" fill="white"/>
<path d="M497.417 366.261L368.829 273.391C367.141 272.172 365.596 271.522 364.239 271.312C361.623 270.909 360.189 272.265 360.189 274.737V280.704L504.21 384.72V376.303C504.21 373.466 501.169 368.971 497.417 366.261Z" fill="#CFCFCF"/>
<path d="M493.814 368.141L365.226 275.179C361.474 272.467 358.432 272.566 358.432 275.402V283.819L500.607 386.604V378.186C500.607 375.351 497.565 370.853 493.814 368.141Z" fill="#B3B3B3"/>
<path d="M368.612 288.631C368.612 289.654 367.623 289.466 366.405 288.212C365.186 286.958 364.198 285.111 364.198 284.088C364.198 283.066 365.186 283.253 366.405 284.507C367.623 285.762 368.612 287.608 368.612 288.631Z" fill="white"/>
<path d="M376.909 294.162C376.909 295.185 375.921 294.997 374.702 293.743C373.484 292.489 372.495 290.642 372.495 289.619C372.495 288.597 373.484 288.784 374.702 290.038C375.921 291.293 376.909 293.139 376.909 294.162Z" fill="white"/>
<path d="M385.206 299.694C385.206 300.717 384.217 300.529 382.999 299.275C381.78 298.021 380.792 296.174 380.792 295.151C380.792 294.129 381.78 294.316 382.999 295.57C384.217 296.825 385.206 298.671 385.206 299.694Z" fill="white"/>
<path d="M402.525 380.548C401.817 379.665 401.108 378.544 400.568 377.396C399.487 375.101 399.487 373.565 400.568 373.965L418.435 380.589L400.568 342.656C399.487 340.361 399.487 338.826 400.568 339.226C401.649 339.627 403.401 341.812 404.484 344.109L424.308 386.197C425.389 388.492 425.389 390.027 424.308 389.626L404.484 382.278C403.943 382.08 403.235 381.433 402.525 380.548Z" fill="#B3B3B3"/>
<path d="M456.511 429.423L430.541 409.996C429.012 408.853 427.773 407.009 427.773 405.88C427.773 404.75 429.012 404.761 430.541 405.905L456.511 425.332C458.04 426.476 459.28 428.319 459.28 429.449C459.28 430.578 458.04 430.567 456.511 429.423Z" fill="#B3B3B3"/>
<rect x="251.758" y="112.807" width="125.43" height="29.5783" transform="rotate(27.7073 251.758 112.807)" fill="#F6F6F6"/>
<path d="M295.668 186.447C292.069 182.786 290.365 176.71 292.168 173.961C293.421 172.05 293.016 168.369 291.173 164.926L289.118 161.087L287.064 157.247C285.221 153.804 282.383 151.425 280.098 151.407C276.811 151.383 272.699 146.594 271.65 141.569C270.92 138.076 268.627 134.48 266.021 132.743L263.115 130.806L260.209 128.868C257.603 127.131 255.31 127.669 254.58 130.189C253.53 133.815 249.419 133.122 246.132 128.763C243.848 125.735 241.009 124.33 239.167 125.316L237.112 126.415L235.057 127.515C233.214 128.501 232.809 131.642 234.062 135.223C235.865 140.376 234.161 144.182 230.562 143.043C228.06 142.253 226.341 143.862 226.341 146.994V150.487V153.979C226.341 157.111 228.06 161.014 230.562 163.559C234.161 167.22 235.865 173.296 234.062 176.045C232.809 177.956 233.214 181.637 235.057 185.08L237.112 188.92L239.167 192.759C241.009 196.202 243.848 198.581 246.132 198.599C249.419 198.623 253.531 203.412 254.58 208.437C255.31 211.93 257.603 215.526 260.209 217.263L263.115 219.2L266.021 221.138C268.627 222.875 270.92 222.337 271.65 219.817C272.7 216.191 276.811 216.884 280.098 221.243C282.383 224.271 285.221 225.676 287.064 224.69L289.118 223.591L291.173 222.491C293.016 221.505 293.421 218.365 292.168 214.783C290.365 209.63 292.069 205.824 295.668 206.963C298.17 207.754 299.89 206.144 299.89 203.012V199.519V196.027C299.89 192.895 298.17 188.992 295.668 186.447ZM263.114 193.059C254.818 187.528 248.091 174.96 248.091 164.988C248.091 155.017 254.818 151.418 263.114 156.949C271.411 162.48 278.137 175.048 278.137 185.019C278.137 194.99 271.411 198.59 263.114 193.059Z" fill="#C0C3F3"/>
<path d="M342.643 178.052C340.098 175.463 338.893 171.166 340.168 169.222C341.054 167.871 340.768 165.268 339.465 162.833L338.011 160.117L336.558 157.402C335.255 154.968 333.248 153.286 331.633 153.273C329.308 153.256 326.401 149.871 325.658 146.316C325.142 143.846 323.52 141.303 321.678 140.075L319.623 138.705L317.568 137.335C315.726 136.107 314.104 136.487 313.588 138.269C312.846 140.834 309.939 140.343 307.614 137.261C305.998 135.119 303.991 134.126 302.688 134.823L301.236 135.6L299.782 136.378C298.479 137.076 298.193 139.296 299.079 141.829C300.354 145.472 299.149 148.164 296.604 147.359C294.835 146.8 293.619 147.938 293.619 150.153V152.622V155.092C293.619 157.306 294.835 160.066 296.604 161.866C299.149 164.454 300.353 168.751 299.079 170.696C298.193 172.047 298.479 174.65 299.782 177.084L301.236 179.8L302.688 182.515C303.991 184.95 305.998 186.632 307.614 186.644C309.938 186.662 312.846 190.048 313.588 193.602C314.104 196.072 315.726 198.615 317.568 199.843L319.623 201.213L321.678 202.583C323.52 203.811 325.142 203.43 325.658 201.648C326.4 199.084 329.307 199.575 331.633 202.657C333.248 204.799 335.255 205.792 336.558 205.095L338.011 204.317L339.465 203.539C340.768 202.842 341.054 200.621 340.168 198.089C338.893 194.446 340.098 191.754 342.643 192.558C344.412 193.117 345.628 191.979 345.628 189.765V187.295V184.826C345.628 182.611 344.412 179.852 342.643 178.052ZM319.624 182.726C313.757 178.814 309.001 169.928 309.001 162.877C309.001 155.826 313.758 153.281 319.624 157.192C325.491 161.104 330.247 169.99 330.247 177.041C330.248 184.093 325.491 186.637 319.624 182.726Z" fill="#C0C3F3"/>
<path d="M332.221 230.441C330.518 228.709 329.712 225.834 330.565 224.533C331.158 223.629 330.966 221.887 330.094 220.258L329.122 218.441L328.15 216.624C327.278 214.995 325.935 213.87 324.854 213.861C323.299 213.85 321.353 211.584 320.857 209.206C320.511 207.553 319.426 205.852 318.193 205.03L316.819 204.114L315.444 203.197C314.211 202.375 313.126 202.63 312.78 203.822C312.284 205.538 310.339 205.21 308.783 203.147C307.702 201.714 306.359 201.049 305.487 201.516L304.515 202.037L303.543 202.558C302.671 203.024 302.479 204.51 303.072 206.204C303.925 208.642 303.119 210.443 301.416 209.905C300.233 209.531 299.419 210.292 299.419 211.774V213.426V215.079C299.419 216.561 300.233 218.407 301.416 219.611C303.119 221.344 303.925 224.219 303.072 225.52C302.479 226.424 302.671 228.165 303.543 229.794L304.515 231.611L305.487 233.427C306.359 235.056 307.702 236.182 308.783 236.19C310.338 236.202 312.284 238.468 312.78 240.845C313.126 242.498 314.211 244.2 315.444 245.021L316.819 245.938L318.193 246.855C319.426 247.677 320.511 247.422 320.857 246.23C321.353 244.514 323.298 244.842 324.854 246.904C325.935 248.338 327.278 249.002 328.15 248.536L329.122 248.015L330.094 247.495C330.966 247.028 331.158 245.543 330.565 243.848C329.712 241.41 330.518 239.609 332.221 240.148C333.404 240.522 334.218 239.76 334.218 238.278V236.626V234.974C334.218 233.492 333.404 231.646 332.221 230.441ZM316.819 233.569C312.893 230.952 309.711 225.006 309.711 220.289C309.711 215.57 312.893 213.868 316.819 216.485C320.744 219.101 323.926 225.048 323.926 229.765C323.926 234.483 320.744 236.186 316.819 233.569Z" fill="#909090"/>
</g>
<defs>
<filter id="filter0_bd_94_226" x="-20" y="-20" width="562" height="562" filterUnits="userSpaceOnUse" color-interpolation-filters="sRGB">
<feFlood flood-opacity="0" result="BackgroundImageFix"/>
<feGaussianBlur in="BackgroundImageFix" stdDeviation="20"/>
<feComposite in2="SourceAlpha" operator="in" result="effect1_backgroundBlur_94_226"/>
<feColorMatrix in="SourceAlpha" type="matrix" values="0 0 0 0 0 0 0 0 0 0 0 0 0 0 0 0 0 0 127 0" result="hardAlpha"/>
<feOffset/>
<feGaussianBlur stdDeviation="10"/>
<feComposite in2="hardAlpha" operator="out"/>
<feColorMatrix type="matrix" values="0 0 0 0 0 0 0 0 0 0 0 0 0 0 0 0 0 0 0.02 0"/>
<feBlend mode="normal" in2="effect1_backgroundBlur_94_226" result="effect2_dropShadow_94_226"/>
<feBlend mode="normal" in="SourceGraphic" in2="effect2_dropShadow_94_226" result="shape"/>
</filter>
<filter id="filter1_bd_94_226" x="6" y="6" width="510" height="510" filterUnits="userSpaceOnUse" color-interpolation-filters="sRGB">
<feFlood flood-opacity="0" result="BackgroundImageFix"/>
<feGaussianBlur in="BackgroundImageFix" stdDeviation="20"/>
<feComposite in2="SourceAlpha" operator="in" result="effect1_backgroundBlur_94_226"/>
<feColorMatrix in="SourceAlpha" type="matrix" values="0 0 0 0 0 0 0 0 0 0 0 0 0 0 0 0 0 0 127 0" result="hardAlpha"/>
<feOffset/>
<feGaussianBlur stdDeviation="10"/>
<feComposite in2="hardAlpha" operator="out"/>
<feColorMatrix type="matrix" values="0 0 0 0 0 0 0 0 0 0 0 0 0 0 0 0 0 0 0.02 0"/>
<feBlend mode="normal" in2="effect1_backgroundBlur_94_226" result="effect2_dropShadow_94_226"/>
<feBlend mode="normal" in="SourceGraphic" in2="effect2_dropShadow_94_226" result="shape"/>
</filter>
</defs>
</svg>
