<svg width="64" height="64" viewBox="0 0 64 64" fill="none" xmlns="http://www.w3.org/2000/svg">
<circle opacity="0.3" cx="35.6226" cy="38.0377" r="22.3396" fill="#4A3FC5"/>
<path fill-rule="evenodd" clip-rule="evenodd" d="M8.42609 40.8362C8.34969 40.7659 8.29153 40.6781 8.25665 40.5803L7.07264 37.265C6.447 35.5175 6.42453 33.6108 7.00881 31.8491C7.59308 30.0873 8.75046 28.5719 10.2964 27.5446L10.3712 27.4947C10.2215 26.2006 10.1396 24.8937 10.1396 23.5746C10.1373 20.6019 10.9412 17.6842 12.4656 15.1321C13.99 12.58 16.1778 10.489 18.7963 9.08163C18.8896 9.03149 18.9938 9.00525 19.0997 9.00525C19.2055 9.00525 19.3098 9.03149 19.403 9.08163C22.0215 10.489 24.2093 12.58 25.7337 15.1321C27.2581 17.6842 28.062 20.6019 28.0598 23.5746C28.0598 24.8937 27.9779 26.2006 27.8281 27.4953L27.9023 27.5446C29.4483 28.5718 30.6059 30.0872 31.1903 31.8489C31.7746 33.6107 31.7523 35.5174 31.1267 37.265L29.9427 40.5803C29.9078 40.6781 29.8497 40.7659 29.7732 40.8362C29.6968 40.9065 29.6045 40.9572 29.5041 40.9838C29.4038 41.0105 29.2985 41.0123 29.1972 40.9892C29.096 40.966 29.002 40.9186 28.9232 40.851L25.0466 37.5287L25.0268 37.5761L24.8021 38.0702C24.7513 38.182 24.6693 38.2768 24.5661 38.3433C24.4628 38.4098 24.3426 38.4452 24.2197 38.4452H13.9796C13.8567 38.4453 13.7363 38.41 13.6329 38.3435C13.5295 38.2769 13.4475 38.1821 13.3966 38.0702L13.1726 37.5761C13.1685 37.568 13.1652 37.5598 13.1619 37.5515C13.1588 37.5439 13.1557 37.5363 13.1521 37.5287L9.27618 40.851C9.19738 40.9186 9.10332 40.966 9.0021 40.9892C8.90088 41.0123 8.79556 41.0105 8.6952 40.9838C8.59485 40.9572 8.50249 40.9065 8.42609 40.8362ZM23.8076 37.1652L23.862 37.0461C24.1321 36.4516 24.3791 35.85 24.6121 35.2452H13.5873C13.8196 35.8527 14.0697 36.4533 14.3374 37.0461L14.3918 37.1652H23.8076ZM29.0505 39.2734L29.9209 36.8349C30.4184 35.4448 30.4655 33.9327 30.0553 32.5143C29.6452 31.096 28.7987 29.8428 27.6361 28.9328C27.2299 31.4562 26.5368 33.9249 25.5702 36.2909L29.0505 39.2734ZM23.302 13.9124C22.1282 12.4875 20.704 11.289 19.0997 10.3757C17.4954 11.2888 16.0712 12.4878 14.8974 13.9124C16.1948 14.5889 17.6364 14.9422 19.0997 14.9422C20.5629 14.9422 22.0045 14.5889 23.302 13.9124ZM19.0997 16.2209C17.3774 16.2209 15.6577 15.7915 14.1159 14.9409C12.3924 17.4337 11.4196 20.4283 11.4196 23.5746C11.416 27.108 11.9917 30.6181 13.1239 33.9651H25.0754C26.205 30.6237 26.7798 27.142 26.7798 23.5746C26.7805 20.4894 25.8399 17.4773 24.0834 14.9409C22.5416 15.7915 20.8219 16.2209 19.0997 16.2209ZM12.6285 36.2909C11.6621 33.9247 10.9692 31.4557 10.5632 28.9321C9.40061 29.8422 8.55415 31.0953 8.14401 32.5137C7.73388 33.932 7.7809 35.4435 8.27841 36.8337L9.14946 39.2734L12.6285 36.2909ZM24.2197 24.365C24.2197 27.1881 21.9227 29.4851 19.0997 29.4851C16.2766 29.4851 13.9796 27.1881 13.9796 24.365C13.9796 21.5419 16.2766 19.245 19.0997 19.245C21.9227 19.245 24.2197 21.5419 24.2197 24.365ZM22.9397 24.365C22.9397 22.2472 21.2175 20.525 19.0997 20.525C16.9819 20.525 15.2596 22.2472 15.2596 24.365C15.2596 26.4828 16.9819 28.2051 19.0997 28.2051C21.2175 28.2051 22.9397 26.4828 22.9397 24.365Z" fill="black"/>
</svg>
