<svg width="20" height="19" viewBox="0 0 20 19" fill="none" xmlns="http://www.w3.org/2000/svg">
<path d="M15.642 18.6161C15.7632 18.5084 15.8814 18.3946 16.0057 18.2885C17.5652 16.9706 18.082 15.1705 17.3743 13.246C17.1015 12.509 16.7044 11.8099 16.3073 11.1244C15.4904 9.71704 14.6417 8.3279 13.7975 6.93572C13.308 6.13044 12.6488 5.80591 12.0001 6.03035C11.603 6.16684 11.453 6.35186 11.703 6.79013C12.87 8.83745 13.9309 10.95 15.1813 12.9442C16.5362 15.1068 15.4056 18.2582 12.4881 18.4826C9.6146 18.704 6.69714 18.5857 3.81606 18.3855C2.0671 18.2642 0.621252 17.3376 0.139303 15.4571C-0.163809 14.2742 0.0514004 13.1186 0.556083 11.9145C0.625799 12.0935 0.68339 12.189 0.701576 12.2936C1.07137 14.5381 2.49903 16.0728 4.74813 16.2033C7.15787 16.3443 9.58429 16.223 12.0046 16.1744C12.6093 16.1623 13.1352 15.8636 13.3065 15.2069C13.4156 14.7868 13.3899 14.4668 12.7852 14.4653C10.4709 14.4592 8.15056 14.3152 5.84085 14.4062C2.94612 14.5245 1.06228 11.6703 2.40658 9.01034C3.55538 6.73706 4.9497 4.58813 6.24096 2.38764C6.35917 2.18594 6.51831 2.00547 6.67289 1.82652C8.92653 -0.765232 11.9364 -0.596897 13.984 2.3194C13.7672 2.24964 13.6263 2.21324 13.4899 2.15864C11.606 1.42616 9.74342 1.87354 8.41427 3.40068C8.12026 3.73887 7.84442 4.10132 7.61709 4.48804C6.60621 6.20779 5.612 7.93663 4.6193 9.667C4.17979 10.4298 4.17828 11.1623 4.59051 11.6567C5.04215 12.2011 5.39527 12.1738 5.74385 11.5687C6.88962 9.58056 8.11419 7.63181 9.16448 5.59359C10.5088 2.98667 14.04 2.85928 15.645 5.41312C16.9226 7.44528 18.0851 9.55478 19.2233 11.6673C19.5915 12.3497 19.8128 13.1474 19.9341 13.9194C20.2417 15.856 19.4688 17.2785 17.6986 18.1065C17.0712 18.4007 16.3801 18.5524 15.7163 18.7692C15.692 18.7177 15.6708 18.6646 15.6465 18.613L15.6465 18.6161L15.642 18.6161ZM10.048 8.6949C9.3812 9.85353 8.76134 10.9288 8.1051 12.0677L11.9865 12.0677C11.3302 10.9272 10.7164 9.8596 10.0465 8.6949L10.048 8.6949Z" fill="#D1D4D6"/>
</svg>
