<svg width="64" height="64" viewBox="0 0 64 64" fill="none" xmlns="http://www.w3.org/2000/svg">
<circle opacity="0.3" cx="35.6226" cy="38.0377" r="22.3396" fill="#3BD378"/>
<path d="M34.6903 16.3336C34.688 16.3201 34.6885 16.3058 34.685 16.2926C34.6753 16.256 34.6609 16.2209 34.6422 16.1881C34.6359 16.1768 34.6264 16.1678 34.6189 16.1573C34.6055 16.1361 34.5902 16.1162 34.5733 16.0977C34.563 16.0872 34.55 16.0799 34.5388 16.0704C34.522 16.055 34.5041 16.0409 34.4851 16.0283L34.4819 16.027L34.4791 16.025L30.8168 13.9267C30.7504 13.8887 30.6753 13.8687 30.5988 13.8687C30.5224 13.8687 30.4473 13.8887 30.3809 13.9267L26.7165 16.0248L26.7138 16.0268L26.7105 16.028C26.6915 16.0407 26.6735 16.0549 26.6567 16.0704C26.6454 16.0796 26.6316 16.0872 26.6223 16.0974C26.6053 16.1162 26.5898 16.1364 26.5763 16.1578C26.569 16.1683 26.5597 16.1771 26.5535 16.1881C26.5347 16.2209 26.5203 16.256 26.5106 16.2926C26.5071 16.3053 26.5076 16.3191 26.5054 16.3321C26.5001 16.3561 26.4969 16.3805 26.4958 16.405V17.298L23.2368 15.257C23.2415 15.2351 23.2445 15.2128 23.2458 15.1904V11.5268C23.2446 11.5027 23.2414 11.4787 23.2363 11.4551C23.234 11.4416 23.2345 11.4273 23.231 11.4141C23.2213 11.3776 23.2069 11.3426 23.1882 11.3099C23.1794 11.2968 23.1699 11.2843 23.1599 11.2723C23.1478 11.2537 23.1343 11.236 23.1195 11.2194C23.1063 11.2078 23.0924 11.1969 23.0779 11.1869C23.0631 11.1735 23.0474 11.1612 23.0309 11.15H23.0284L23.0266 11.1463L19.362 9.0482C19.2956 9.01022 19.2205 8.99023 19.144 8.99023C19.0676 8.99023 18.9925 9.01022 18.9261 9.0482L15.2615 11.1463L15.2585 11.1485H15.256C15.2393 11.1598 15.2235 11.1722 15.2086 11.1856C15.1942 11.1956 15.1804 11.2064 15.1673 11.2179C15.1523 11.2347 15.1387 11.2526 15.1265 11.2715C15.1166 11.2833 15.1073 11.2956 15.0987 11.3084C15.0799 11.3412 15.0655 11.3763 15.0558 11.4128C15.0523 11.4256 15.0528 11.4394 15.0506 11.4524C15.0453 11.4764 15.0421 11.5008 15.0411 11.5253V15.1904C15.0423 15.2129 15.0453 15.2353 15.0501 15.2573L11.7917 17.298V16.4053C11.7906 16.3812 11.7874 16.3572 11.7822 16.3336C11.78 16.3201 11.7805 16.3058 11.777 16.2926C11.7672 16.256 11.7528 16.2209 11.7341 16.1881C11.7279 16.1768 11.7183 16.1678 11.7108 16.1573C11.6974 16.1361 11.6821 16.1162 11.6652 16.0977C11.655 16.0872 11.6419 16.0799 11.6307 16.0704C11.6139 16.055 11.596 16.0409 11.5771 16.0283L11.5738 16.027L11.5711 16.025L7.90817 13.9267C7.84182 13.8887 7.7667 13.8687 7.69025 13.8687C7.6138 13.8687 7.53867 13.8887 7.47232 13.9267L3.80869 16.0248L3.80594 16.0268L3.80268 16.028C3.78364 16.0407 3.76563 16.0549 3.74883 16.0704C3.73755 16.0796 3.72378 16.0872 3.71451 16.0974C3.69741 16.1162 3.68199 16.1364 3.66842 16.1578C3.66116 16.1683 3.65189 16.1771 3.64562 16.1881C3.62691 16.2209 3.61252 16.256 3.60279 16.2926C3.59928 16.3053 3.59979 16.3191 3.59753 16.3321C3.59229 16.3561 3.5891 16.3805 3.58801 16.405V20.0687C3.588 20.1474 3.60919 20.2246 3.64934 20.2923C3.68949 20.36 3.74713 20.4157 3.81621 20.4534L7.25164 22.3293V27.3486L3.80869 29.3204L3.80594 29.3224L3.80268 29.3237C3.78364 29.3363 3.76563 29.3505 3.74883 29.366C3.73755 29.3753 3.72378 29.3828 3.71451 29.3931C3.69741 29.4118 3.68199 29.432 3.66842 29.4534C3.66116 29.4639 3.65189 29.4727 3.64562 29.4837C3.62691 29.5166 3.61252 29.5517 3.60279 29.5882C3.59928 29.601 3.59979 29.6147 3.59753 29.6278C3.59229 29.6517 3.5891 29.6761 3.58801 29.7007V33.3643C3.58805 33.443 3.60931 33.5203 3.64955 33.588C3.6898 33.6557 3.74754 33.7114 3.81671 33.749L7.48009 35.7487C7.50068 35.7587 7.52204 35.7671 7.54396 35.7737C7.55574 35.778 7.56676 35.7842 7.57878 35.7872C7.65168 35.8071 7.72856 35.8071 7.80146 35.7872C7.81349 35.784 7.82451 35.7777 7.83628 35.7737C7.8582 35.7671 7.87956 35.7587 7.90016 35.7487L11.0107 34.0506L15.0436 36.7356V38.5524C15.0435 38.6311 15.0647 38.7084 15.1049 38.7761C15.145 38.8438 15.2027 38.8994 15.2718 38.9371L18.9351 40.9368C18.9557 40.9468 18.9771 40.9552 18.999 40.9618C19.0108 40.9661 19.0218 40.9723 19.0338 40.9753C19.1067 40.9952 19.1836 40.9952 19.2565 40.9753C19.2685 40.9721 19.2796 40.9658 19.2913 40.9618C19.3132 40.9552 19.3346 40.9468 19.3552 40.9368L23.0176 38.9366C23.0867 38.8989 23.1443 38.8433 23.1844 38.7756C23.2246 38.7079 23.2458 38.6306 23.2458 38.5519V36.7351L27.2786 34.0501L30.3892 35.7482C30.4098 35.7582 30.4311 35.7666 30.4531 35.7732C30.4648 35.7775 30.4758 35.7837 30.4879 35.7867C30.5608 35.8066 30.6377 35.8066 30.7106 35.7867C30.7226 35.7835 30.7336 35.7772 30.7454 35.7732C30.7673 35.7666 30.7887 35.7582 30.8092 35.7482L34.4714 33.749C34.5404 33.7113 34.5981 33.6557 34.6382 33.588C34.6784 33.5203 34.6996 33.443 34.6996 33.3643V29.7009C34.6984 29.6768 34.6952 29.6528 34.69 29.6293C34.6878 29.6157 34.6883 29.6015 34.6848 29.5882C34.6751 29.5517 34.6607 29.5166 34.642 29.4837C34.6357 29.4725 34.6262 29.4634 34.6187 29.4529C34.6052 29.4318 34.59 29.4118 34.5731 29.3933C34.5628 29.3828 34.5498 29.3755 34.5385 29.366C34.5218 29.3506 34.5038 29.3365 34.4849 29.3239L34.4816 29.3227L34.4789 29.3207L31.0359 27.3488V22.3293L34.4711 20.4542C34.5402 20.4164 34.5978 20.3608 34.638 20.2931C34.6781 20.2254 34.6993 20.1481 34.6993 20.0694V16.4053C34.6983 16.3812 34.6953 16.3572 34.6903 16.3336ZM21.7972 34.9411L19.144 36.3894L16.4909 34.9411L16.3787 34.8797L19.144 33.2961L21.9094 34.8787L21.7972 34.9411ZM10.915 19.8086L8.12835 21.3296V18.6652L10.915 17.1442V19.8086ZM7.69 28.1078L10.4554 29.6914L10.3432 29.7528L7.69 31.2011L5.03683 29.7528L4.92461 29.6914L7.69 28.1078ZM11.3166 29.1744L8.12835 27.3483V22.3293L11.0325 20.744L15.0423 23.353V26.5513L11.3166 29.1744ZM15.919 14.9302V12.2657L18.7057 13.7877V16.4514L15.919 14.9302ZM22.3691 14.9302L19.5824 16.4514V13.7877L22.3691 12.2662V14.9302ZM19.144 21.5222L21.9094 23.1058L21.7972 23.1672L19.144 24.6155L16.4909 23.1672L16.3787 23.1058L19.144 21.5222ZM15.919 23.854L18.7057 25.3752V28.0404L15.919 26.5187V23.854ZM19.5824 25.3752L22.3691 23.854V26.5187L19.5824 28.0404V25.3752ZM23.2458 23.353L27.2556 20.7432L30.1597 22.3293V27.3486L26.9715 29.1746L23.2458 26.5513V23.353ZM30.1592 18.6652V21.3296L27.3731 19.8086V17.1442L30.1592 18.6652ZM27.3731 33.1043V30.4396L30.1597 31.9608V34.6252L27.3731 33.1043ZM33.2512 29.7528L30.5981 31.2011L27.9447 29.7528L27.8324 29.6914L30.5978 28.1078L33.3632 29.6914L33.2512 29.7528ZM30.5981 14.8122L33.3635 16.3958L33.2512 16.4571L30.5981 17.9054L27.9447 16.4571L27.8324 16.3958L30.5981 14.8122ZM26.5116 20.1811L22.7929 22.6016L19.5824 20.763V17.4503L22.5231 15.8447L26.4961 18.3325V20.0684C26.4963 20.1065 26.5016 20.1444 26.5116 20.1811ZM19.144 9.93393L21.9092 11.5178L19.2653 12.9611L19.144 13.0272L19.0228 12.9611L16.3789 11.5175L19.144 9.93393ZM15.765 15.8454L18.7057 17.4511V20.763L15.4952 22.6016L11.7765 20.1811C11.7864 20.1444 11.7916 20.1065 11.7917 20.0684V18.3325L15.765 15.8454ZM7.69 14.8122L10.4554 16.3958L10.3432 16.4571L7.69 17.9054L5.03683 16.4571L4.92461 16.3958L7.69 14.8122ZM4.46547 17.1442L7.25214 18.6654V21.3296L4.46547 19.8086V17.1442ZM4.46547 30.4398L7.25214 31.9611V34.6255L4.46547 33.1043V30.4398ZM8.12885 31.9611L10.9155 30.4398V33.1043L8.12885 34.6252V31.9611ZM11.7674 33.501C11.7831 33.457 11.7916 33.4108 11.7925 33.364V29.9123L15.51 27.2942L18.7057 29.0386V32.5369L15.2615 34.5088L15.2587 34.5108L15.2555 34.512C15.2364 34.5247 15.2184 34.5388 15.2016 34.5543C15.1903 34.5636 15.1766 34.5711 15.1673 34.5814C15.1502 34.6001 15.1348 34.6203 15.1212 34.6418C15.1139 34.6523 15.1047 34.6611 15.0984 34.6721C15.0797 34.7049 15.0653 34.74 15.0556 34.7765C15.0521 34.7893 15.0526 34.8031 15.0503 34.8161C15.0451 34.8401 15.0419 34.8645 15.0408 34.889V35.682L11.7674 33.501ZM15.919 36.4986V35.6277L18.7057 37.1489V39.8133L15.919 38.2924V36.4986ZM19.5824 39.8133V37.1491L22.3691 35.6279V38.2926L19.5824 39.8133ZM23.2458 34.889C23.2446 34.8649 23.2414 34.8409 23.2363 34.8174C23.234 34.8038 23.2345 34.7896 23.231 34.7763C23.2213 34.7398 23.2069 34.7047 23.1882 34.6718C23.1819 34.6606 23.1724 34.6515 23.1649 34.641C23.1514 34.6199 23.1362 34.5999 23.1193 34.5814C23.109 34.5709 23.096 34.5636 23.0847 34.5541C23.068 34.5387 23.0501 34.5246 23.0311 34.512L23.0278 34.5108L23.0251 34.5088L19.5824 32.5369V29.0386L22.7781 27.2942L26.4963 29.9123V33.3643C26.4973 33.411 26.5057 33.4573 26.5214 33.5013L23.2465 35.6823L23.2458 34.889ZM31.0359 34.625V31.9608L33.8226 30.4396V33.1043L31.0359 34.625ZM31.0359 21.3294V18.6652L33.8226 17.1442V19.8086L31.0359 21.3294Z" fill="black"/>
</svg>
