<svg width="53" height="53" viewBox="0 0 53 53" fill="none" xmlns="http://www.w3.org/2000/svg">
<circle opacity="0.3" cx="26" cy="28" r="15" fill="#3BD378"/>
<path d="M31.5061 18.4461L31.5146 18.4421C31.6439 18.4383 31.7668 18.3846 31.8573 18.2921C31.9479 18.1996 31.999 18.0756 32 17.9462C32.0007 17.8808 31.9884 17.8159 31.9639 17.7553C31.9394 17.6947 31.9031 17.6395 31.8571 17.593C31.8111 17.5465 31.7564 17.5096 31.696 17.4844C31.6357 17.4592 31.5709 17.4463 31.5056 17.4463C31.3646 17.4013 30.9946 16.7929 30.9946 15.6966C30.9946 14.6003 31.3651 13.9919 31.5061 13.9469L31.5131 13.9434C31.6357 13.9346 31.7508 13.881 31.8364 13.7927C31.922 13.7044 31.9721 13.5877 31.977 13.4648C31.982 13.342 31.9415 13.2216 31.8633 13.1267C31.785 13.0318 31.6746 12.9691 31.553 12.9505L15.4413 11.0559C14.8141 10.9814 14.1803 10.9814 13.5532 11.0559L1.94016 12.4506H1.93267C0.992328 12.5156 0.499914 13.8624 0.499914 15.1967C0.467206 15.99 0.676418 16.7745 1.09981 17.4463C0.676272 18.1179 0.467047 18.9025 0.499914 19.6959C0.473063 20.4595 0.663771 21.2151 1.04982 21.8745C0.359438 22.5694 0 24.0111 0 25.4449C0 27.4155 0.675383 29.4107 1.96666 29.4442L18.9382 31.4408C18.9576 31.4431 18.9772 31.4441 18.9967 31.4438C19.0166 31.4439 19.0365 31.4428 19.0562 31.4403L22.996 30.9674V32.9436C22.996 33.0529 23.0318 33.1593 23.098 33.2463C23.1642 33.3334 23.2571 33.3963 23.3625 33.4255C23.406 33.4374 23.4508 33.4434 23.4959 33.4435C23.5822 33.4435 23.667 33.4211 23.7421 33.3787C23.8171 33.3362 23.8799 33.275 23.9244 33.201L25.0417 31.3389L26.0955 32.7436C26.1584 32.8276 26.2462 32.8896 26.3464 32.9208C26.4465 32.9521 26.554 32.9511 26.6535 32.9179C26.753 32.8848 26.8396 32.8211 26.901 32.736C26.9623 32.6509 26.9953 32.5486 26.9953 32.4437V30.488L31.554 29.9406C31.6807 29.9255 31.7967 29.8627 31.8785 29.7649C31.9603 29.667 32.0016 29.5417 31.994 29.4144C31.9864 29.2871 31.9305 29.1676 31.8376 29.0802C31.7448 28.9928 31.6221 28.9442 31.4946 28.9443C31.1446 28.9443 30.4947 27.8055 30.4947 25.9448C30.4947 24.1001 31.1086 23.0323 31.4946 22.9453C31.6278 22.9457 31.7557 22.8933 31.8504 22.7997C31.9452 22.706 31.9989 22.5786 32 22.4454C32.001 22.3232 31.9568 22.2049 31.8759 22.1134C31.7949 22.0218 31.683 21.9634 31.5615 21.9495C31.5418 21.9471 31.5219 21.9458 31.5021 21.9455C31.3586 21.8905 30.9946 21.2836 30.9946 20.1958C30.9946 19.096 31.3651 18.4911 31.5061 18.4461ZM16.1407 30.1046C15.6688 29.1579 15.4473 28.1062 15.4973 27.0496C15.4607 26.0352 15.658 25.0261 16.0737 24.1001L17.7199 24.2936C17.2098 25.2634 16.9607 26.3493 16.9971 27.4445C16.9801 28.4145 17.1675 29.3772 17.547 30.27L16.1407 30.1046ZM14.1231 29.8671C13.6667 28.9254 13.4518 27.885 13.4977 26.8396C13.4575 25.8167 13.6607 24.7988 14.0906 23.8696L15.0254 23.9796C14.6533 24.9594 14.4741 26.0018 14.4975 27.0496C14.4819 28.0424 14.6421 29.0302 14.9709 29.9671L14.1231 29.8671ZM6.04246 28.9173C5.66173 28.0169 5.47978 27.0449 5.50905 26.0678C5.4506 24.9829 5.69132 23.9027 6.20493 22.9453L12.9853 23.7417C13.0003 23.7417 13.0138 23.7507 13.0287 23.7507C13.0326 23.7509 13.0364 23.7509 13.0402 23.7507C12.6611 24.7355 12.4768 25.7846 12.4978 26.8396C12.4834 27.8229 12.64 28.8011 12.9608 29.7306L6.04246 28.9173ZM4.0463 28.6828C3.66177 27.7805 3.47855 26.8052 3.50939 25.8248C3.45019 24.7421 3.68879 23.6639 4.19927 22.7074L5.13011 22.8168C4.6914 23.8426 4.47894 24.9509 4.50722 26.0663C4.49553 26.9879 4.63053 27.9056 4.90715 28.7848L4.0463 28.6828ZM2.01065 21.4456C1.86968 21.4006 1.49974 20.7922 1.49974 19.6959C1.49974 18.6091 1.86268 18.0032 1.99566 17.9492L4.36375 18.2251C4.37224 18.2251 4.37874 18.2316 4.38674 18.2326L14.442 19.4124C14.2183 20.0664 14.1102 20.7544 14.1226 21.4456C14.1213 21.9299 14.1731 22.4128 14.277 22.8858L13.3207 22.7738C13.086 22.1938 12.976 21.571 12.9978 20.9457C12.9973 20.647 13.0308 20.3493 13.0977 20.0583C13.1125 19.9943 13.1145 19.9281 13.1037 19.8633C13.0929 19.7986 13.0694 19.7366 13.0346 19.6809C12.9998 19.6252 12.9544 19.5769 12.9009 19.5388C12.8475 19.5007 12.787 19.4734 12.7231 19.4587C12.6591 19.4439 12.5928 19.4419 12.5281 19.4527C12.4633 19.4635 12.4013 19.487 12.3456 19.5218C12.2899 19.5566 12.2417 19.602 12.2035 19.6555C12.1654 19.7089 12.1382 19.7694 12.1234 19.8333C12.0398 20.1982 11.9977 20.5713 11.9979 20.9457C11.9925 21.5195 12.0657 22.0914 12.2154 22.6454L6.02246 21.9175H6.01196L4.01931 21.6825H4.00631L2.01065 21.4456ZM4.81917 13.7809L6.76033 14.0084H6.76533L17.8734 15.3176C17.6137 15.9093 17.4853 16.5502 17.497 17.1963C17.4929 17.7406 17.5817 18.2816 17.7594 18.796L6.9398 17.5257C6.80679 17.0101 6.74258 16.479 6.74883 15.9465C6.74812 15.6337 6.76733 15.3211 6.80632 15.0107C6.81473 14.9456 6.81022 14.8794 6.79306 14.816C6.7759 14.7527 6.74643 14.6933 6.70632 14.6413C6.66621 14.5893 6.61626 14.5457 6.55931 14.513C6.50235 14.4803 6.43952 14.4592 6.3744 14.4508C6.30927 14.4424 6.24313 14.4469 6.17975 14.464C6.11637 14.4812 6.05698 14.5107 6.00499 14.5508C5.953 14.5909 5.90942 14.6408 5.87673 14.6978C5.84405 14.7547 5.8229 14.8176 5.8145 14.8827C5.7701 15.2356 5.74822 15.5909 5.74901 15.9465C5.74752 16.435 5.79322 16.9225 5.88548 17.4023L4.76968 17.2713C4.57162 16.684 4.48003 16.0661 4.49922 15.4466C4.49868 14.876 4.60728 14.3106 4.81917 13.7809ZM18.9967 15.4466C19.0164 15.4467 19.0361 15.4455 19.0557 15.4431L30.2538 14.1008C30.0776 14.6142 29.99 15.1538 29.9948 15.6966C29.9829 16.344 30.112 16.9863 30.3733 17.5787L19.0022 18.9415C18.8572 18.884 18.4968 18.2826 18.4968 17.1963C18.4968 16.1 18.8667 15.4916 18.9967 15.4466ZM15.3473 23.0113C15.192 22.5041 15.1161 21.976 15.1224 21.4456C15.0871 20.7886 15.2127 20.1329 15.4883 19.5354L17.8749 19.8154C17.6142 20.4073 17.4852 21.0488 17.497 21.6955C17.4929 22.2398 17.5817 22.7808 17.7594 23.2952L15.3473 23.0113ZM19.0037 23.4412C18.8577 23.3837 18.4968 22.7823 18.4968 21.6955C18.4968 20.5992 18.8667 19.9908 18.9967 19.9458C19.0166 19.9459 19.0365 19.9448 19.0562 19.9423L30.2543 18.6001C30.0779 19.1134 29.9902 19.653 29.9948 20.1958C29.985 20.8437 30.1182 21.4858 30.3847 22.0765L19.0037 23.4412ZM13.6716 12.0472C14.2205 11.9822 14.775 11.9822 15.3239 12.0472L27.2618 13.451L18.9967 14.4433L6.88231 13.0155H6.87731L6.24292 12.941L13.6716 12.0472ZM1.99316 13.447L3.79684 13.6584C3.60027 14.2341 3.49977 14.8383 3.4994 15.4466C3.49471 16.0167 3.5573 16.5854 3.68586 17.1408L2.01065 16.9463C1.86968 16.9014 1.49974 16.293 1.49974 15.1967C1.49974 14.1178 1.85768 13.5119 1.99316 13.4495V13.447ZM1.99965 28.4444C1.64971 28.4444 0.999827 27.3056 0.999827 25.4449C0.999827 23.5952 1.63872 22.4624 1.99216 22.4479L3.12896 22.5814C2.69285 23.6058 2.48163 24.7118 2.50957 25.8248C2.49829 26.7484 2.63483 27.6679 2.914 28.5483L2.05814 28.4484C2.03875 28.4458 2.01922 28.4444 1.99965 28.4444ZM25.3956 30.1441C25.3469 30.0778 25.2825 30.0248 25.2081 29.9899C25.1337 29.955 25.0517 29.9392 24.9697 29.9441C24.8884 29.9488 24.8094 29.9733 24.7397 30.0155C24.67 30.0576 24.6117 30.1162 24.5698 30.1861L23.9959 31.1389V26.8506L25.9955 26.6097V30.9439L25.3956 30.1441ZM26.9953 29.4807V26.4892L27.3093 26.4512C27.441 26.4355 27.5611 26.3681 27.6431 26.2638C27.7252 26.1596 27.7624 26.027 27.7467 25.8953C27.731 25.7636 27.6636 25.6435 27.5593 25.5615C27.4551 25.4794 27.3225 25.4422 27.1908 25.4579L26.4409 25.5489H26.4374L23.4379 25.9088C23.4324 25.9088 23.428 25.9128 23.4225 25.9133L22.7996 25.9888C22.6731 26.0038 22.5572 26.0665 22.4754 26.1641C22.3936 26.2617 22.3522 26.3869 22.3595 26.514C22.3668 26.6411 22.4224 26.7607 22.5149 26.8482C22.6073 26.9358 22.7297 26.9847 22.857 26.9851C22.8768 26.9852 22.8965 26.984 22.916 26.9816L22.996 26.9716V29.9606L18.9967 30.4405L18.9527 30.4355C18.6078 30.352 17.9969 29.2857 17.9969 27.4445C17.9969 25.5839 18.6468 24.4451 18.9967 24.4451C19.0166 24.4451 19.0365 24.444 19.0562 24.4416L30.0448 23.1243C29.6658 24.0155 29.4785 24.9765 29.4949 25.9448C29.4587 27.0391 29.7065 28.1242 30.2143 29.0942L26.9953 29.4807Z" fill="black"/>
</svg>
