<svg width="65" height="64" viewBox="0 0 65 64" fill="none" xmlns="http://www.w3.org/2000/svg">
<circle opacity="0.3" cx="36.6226" cy="38.0377" r="22.3396" fill="url(#paint0_linear_28_1554)"/>
<path fill-rule="evenodd" clip-rule="evenodd" d="M14.6347 35.0563C15.048 35.299 15.52 35.4283 16 35.4283C16.4821 35.4276 16.9552 35.2983 17.3707 35.0537L28.7835 28.2053L30.0107 28.943C30.428 29.199 30.6667 29.619 30.6667 30.095C30.6667 30.571 30.428 30.991 30.0187 31.243L16.6893 39.2403C16.2787 39.483 15.7187 39.4803 15.3173 39.243L1.98933 31.247C1.572 30.991 1.33333 30.571 1.33333 30.095C1.33333 29.619 1.572 29.199 1.984 28.947L3.21669 28.2053L14.6347 35.0563ZM1.92063 27.4276L1.29733 27.0536C0.482667 26.5523 0 25.6976 0 24.7617C0 23.8257 0.482667 22.971 1.29067 22.4736L14.6293 14.4697C15.0447 14.2288 15.5162 14.1018 15.9963 14.1013C16.4764 14.1009 16.9482 14.227 17.364 14.467L30.7013 22.4697C31.5173 22.971 32 23.8257 32 24.7617C32 25.6976 31.5173 26.5523 30.7093 27.0496L30.0798 27.4274L30.704 27.803C31.0987 28.0406 31.4254 28.3761 31.6524 28.7771C31.8793 29.178 31.9989 29.6308 31.9994 30.0915C31.9999 30.5522 31.8815 31.0053 31.6554 31.4067C31.4294 31.8082 31.1035 32.1445 30.7093 32.383L30.0798 32.7608L30.704 33.1364C31.0987 33.374 31.4254 33.7095 31.6524 34.1104C31.8793 34.5114 31.9989 34.9641 31.9994 35.4249C31.9999 35.8856 31.8815 36.3386 31.6554 36.7401C31.4294 37.1416 31.1035 37.4779 30.7093 37.7164L17.3707 45.7204C16.9545 45.9632 16.4818 46.0924 16 46.095C15.5267 46.095 15.0413 45.9617 14.6347 45.723L1.29733 37.7204C0.482667 37.219 0 36.3644 0 35.4284C0 34.4924 0.482667 33.6377 1.29067 33.1404L1.92064 32.761L1.29733 32.387C0.482667 31.8857 0 31.031 0 30.095C0 29.159 0.482667 28.3043 1.29067 27.807L1.92063 27.4276ZM15.312 15.6163C15.5173 15.495 15.7613 15.4283 16 15.4283C16.2399 15.4289 16.4754 15.4928 16.6827 15.6137L30.0107 23.6097C30.428 23.8657 30.6667 24.2857 30.6667 24.7617C30.6667 25.2376 30.428 25.6576 30.0187 25.9096L16.6893 33.907C16.2787 34.1497 15.7187 34.147 15.3173 33.9097L1.98933 25.9137C1.572 25.6577 1.33333 25.2376 1.33333 24.7617C1.33333 24.2857 1.572 23.8657 1.98267 23.6137L15.312 15.6163ZM16 40.7617C15.5267 40.7617 15.0413 40.6283 14.6347 40.3897L3.2167 33.5387L1.984 34.2804C1.572 34.5324 1.33333 34.9524 1.33333 35.4284C1.33333 35.9044 1.572 36.3244 1.98933 36.5804L15.3173 44.5764C15.7187 44.8137 16.2787 44.8164 16.6893 44.5737L30.0187 36.5764C30.428 36.3244 30.6667 35.9044 30.6667 35.4284C30.6667 34.9524 30.428 34.5324 30.0107 34.2764L28.7835 33.5386L17.3707 40.387C16.9545 40.6298 16.4818 40.759 16 40.7617Z" fill="black"/>
<defs>
<linearGradient id="paint0_linear_28_1554" x1="14.283" y1="38.0377" x2="58.9623" y2="38.0377" gradientUnits="userSpaceOnUse">
<stop stop-color="#EF5F14"/>
<stop offset="1" stop-color="#E88947"/>
</linearGradient>
</defs>
</svg>
