<svg width="53" height="53" viewBox="0 0 53 53" fill="none" xmlns="http://www.w3.org/2000/svg">
<circle opacity="0.3" cx="26" cy="28" r="15" fill="#685FD3"/>
<g clip-path="url(#clip0_25_1343)">
<path d="M10.3888 24.2681L14.8145 26.3751C14.8868 26.4107 14.9664 26.4289 15.0469 26.4284C15.1275 26.4279 15.2068 26.4087 15.2786 26.3722C15.2786 26.3722 15.2825 26.376 15.2845 26.3751L19.7102 24.2681C19.8034 24.2237 19.8822 24.1538 19.9374 24.0665C19.9925 23.9793 20.0218 23.8781 20.0218 23.7749V20.9996C20.0218 20.8547 19.9643 20.7156 19.8618 20.6132C19.7593 20.5107 19.6203 20.4531 19.4753 20.4531C19.3304 20.4531 19.1914 20.5107 19.0889 20.6132C18.9864 20.7156 18.9288 20.8547 18.9288 20.9996V23.4299L15.5958 25.0166V20.6776L19.7098 18.7183C19.7746 18.6875 19.8328 18.6442 19.8809 18.5909C19.9291 18.5376 19.9662 18.4754 19.9902 18.4077C20.0143 18.34 20.0247 18.2683 20.021 18.1966C20.0173 18.1249 19.9994 18.0546 19.9685 17.9898C19.9279 17.9097 19.8679 17.8412 19.7938 17.7904C19.7696 17.7656 19.7409 17.7457 19.7093 17.7315L15.2838 15.624C15.2104 15.589 15.1302 15.5708 15.0489 15.5708C14.9677 15.5708 14.8874 15.589 14.8141 15.624L10.3885 17.7315C10.3809 17.7362 10.3731 17.7413 10.3658 17.7468C10.3552 17.7529 10.3428 17.7559 10.3317 17.7626C10.2537 17.8119 10.1894 17.8801 10.1448 17.9609C10.1002 18.0416 10.0768 18.1324 10.0768 18.2247V23.7749C10.077 23.8781 10.1064 23.9793 10.1616 24.0665C10.2168 24.1538 10.2956 24.2237 10.3888 24.2681ZM11.1703 19.0906L14.5028 20.6772V25.0161L11.1703 23.4295V19.0906ZM15.0493 16.723L18.2039 18.2251L15.0493 19.7267L11.8948 18.2247L15.0493 16.723Z" fill="black"/>
<path d="M15.0495 29.9264C19.9799 29.9264 23.9767 25.9299 23.9767 20.9992C23.9767 16.0689 19.9799 12.072 15.0495 12.072C10.1192 12.072 6.12231 16.0689 6.12231 20.9992C6.12789 25.9274 10.1214 29.9207 15.0495 29.9264ZM15.0495 13.1651C19.3765 13.1651 22.8837 16.6727 22.8837 20.9992C22.8837 25.3262 19.3765 28.8334 15.0495 28.8334C10.723 28.8334 7.21537 25.3262 7.21537 20.9992C7.22007 16.6748 10.7252 13.1702 15.0495 13.1651Z" fill="black"/>
<path d="M29.5027 17.7299H26.2184C25.9835 16.925 25.662 16.148 25.2593 15.4126L27.5813 13.0903C27.632 13.0396 27.6723 12.9794 27.6998 12.9131C27.7273 12.8468 27.7414 12.7757 27.7414 12.7039C27.7414 12.6322 27.7273 12.5611 27.6998 12.4948C27.6723 12.4285 27.632 12.3683 27.5813 12.3175L23.7304 8.46626C23.6279 8.36372 23.4888 8.30611 23.3438 8.30611C23.1988 8.30611 23.0597 8.36372 22.9571 8.46626L20.6352 10.7886C19.8999 10.3856 19.1229 10.0639 18.318 9.82908V6.54653C18.318 6.40158 18.2604 6.26257 18.1579 6.16007C18.0554 6.05758 17.9164 6 17.7714 6H12.3267C12.1818 6 12.0428 6.05758 11.9403 6.16007C11.8378 6.26257 11.7802 6.40158 11.7802 6.54653V9.83083C10.9753 10.0658 10.1983 10.3874 9.46291 10.7902L7.14082 8.4679C7.09009 8.41714 7.02985 8.37688 6.96355 8.34941C6.89725 8.32193 6.82619 8.30779 6.75442 8.30779C6.68266 8.30779 6.6116 8.32193 6.5453 8.34941C6.479 8.37688 6.41876 8.41714 6.36803 8.4679L2.51643 12.3192C2.46567 12.3699 2.42541 12.4301 2.39793 12.4964C2.37046 12.5627 2.35632 12.6338 2.35632 12.7056C2.35632 12.7773 2.37046 12.8484 2.39793 12.9147C2.42541 12.981 2.46567 13.0412 2.51643 13.092C2.61898 13.1945 2.75804 13.2521 2.90304 13.2521C3.04804 13.2521 3.18711 13.1945 3.28966 13.092L6.7541 9.62752L8.98404 11.8577C9.0703 11.9435 9.18266 11.9982 9.30342 12.0131C9.42418 12.028 9.54647 12.0023 9.65102 11.9401C10.5251 11.4179 11.4707 11.0261 12.458 10.7771C12.576 10.7473 12.6806 10.679 12.7554 10.583C12.8302 10.487 12.8708 10.3688 12.8708 10.2471V7.09306H17.2234V10.2484C17.2234 10.4987 17.3934 10.7173 17.6358 10.7783C18.6231 11.0273 19.5687 11.4191 20.4428 11.9413C20.5472 12.0038 20.6696 12.0296 20.7904 12.0147C20.9112 11.9998 21.0236 11.945 21.1097 11.859L23.3394 9.62883L26.4174 12.7069L24.1878 14.937C24.1017 15.023 24.0468 15.1353 24.0317 15.256C24.0167 15.3768 24.0425 15.499 24.1049 15.6035C24.6271 16.4777 25.0189 17.4235 25.2679 18.4109C25.2978 18.5288 25.3662 18.6333 25.4621 18.708C25.5581 18.7827 25.6762 18.8233 25.7979 18.8233H28.9527V23.1764H25.8008C25.6793 23.1766 25.5613 23.2171 25.4654 23.2917C25.3695 23.3663 25.3011 23.4707 25.271 23.5885C25.022 24.576 24.6302 25.5219 24.108 26.3962C24.0358 26.5206 24.0155 26.6684 24.0516 26.8076C24.0876 26.9467 24.1771 27.0661 24.3006 27.1398C24.424 27.2135 24.5716 27.2356 24.7112 27.2013C24.8508 27.1669 24.9713 27.0789 25.0465 26.9564C25.5496 26.1139 25.9434 25.2109 26.2185 24.269H29.5028C29.8041 24.269 30.0493 24.0243 30.0493 23.7225V18.2763C30.0493 17.9745 29.8041 17.7298 29.5028 17.7298L29.5027 17.7299Z" fill="black"/>
<path d="M26.8084 28.9072L23.3444 32.3722L21.1142 30.1421C21.0282 30.0563 20.916 30.0016 20.7954 29.9867C20.6748 29.9718 20.5526 29.9975 20.4482 30.0596C19.5736 30.5816 18.6276 30.9733 17.64 31.2223C17.5221 31.2523 17.4175 31.3207 17.3429 31.4168C17.2683 31.5128 17.2278 31.631 17.2279 31.7527V34.908H12.8733V31.7505C12.8732 31.6289 12.8326 31.5108 12.7579 31.4148C12.6832 31.3189 12.5787 31.2505 12.4608 31.2206C11.4734 30.9716 10.5275 30.5799 9.653 30.058C9.54852 29.9958 9.4263 29.9701 9.30561 29.985C9.18493 30 9.07264 30.0546 8.98646 30.1404L6.75684 32.37L3.6788 29.2924L5.90841 27.0623C5.99452 26.9763 6.04944 26.864 6.06445 26.7433C6.07946 26.6226 6.05371 26.5003 5.99127 26.3958C5.46921 25.5214 5.07742 24.5755 4.82826 23.588C4.79831 23.4702 4.72996 23.3657 4.63399 23.2911C4.53802 23.2164 4.41991 23.1759 4.29834 23.1759H1.14335V18.8234H4.29834C4.41994 18.8233 4.53805 18.7828 4.634 18.7081C4.72996 18.6334 4.79827 18.5288 4.82815 18.411C5.07743 17.4236 5.46925 16.4779 5.99127 15.6036C6.04204 15.5212 6.07001 15.4267 6.07232 15.33C6.07463 15.2332 6.05121 15.1376 6.00443 15.0529C5.95765 14.9681 5.88921 14.8973 5.8061 14.8477C5.72299 14.7981 5.6282 14.7715 5.53142 14.7705C5.43467 14.7696 5.33939 14.7943 5.2553 14.8422C5.17121 14.89 5.10133 14.9593 5.05277 15.043C4.54983 15.8855 4.15598 16.7885 3.88069 17.7303H0.596821C0.451873 17.7303 0.312861 17.7879 0.210367 17.8904C0.107873 17.9929 0.050293 18.1319 0.050293 18.2768V23.723C0.050293 23.8679 0.107873 24.0069 0.210367 24.1094C0.312861 24.2119 0.451873 24.2695 0.596821 24.2695H3.88069C4.11546 25.0744 4.43719 25.8514 4.84017 26.5867L2.51787 28.9086C2.41535 29.0111 2.35777 29.1502 2.35777 29.2952C2.35777 29.4402 2.41535 29.5792 2.51787 29.6818L6.36914 33.5326C6.41987 33.5834 6.48011 33.6236 6.54641 33.6511C6.61271 33.6786 6.68377 33.6927 6.75553 33.6927C6.8273 33.6927 6.89836 33.6786 6.96466 33.6511C7.03096 33.6236 7.09119 33.5834 7.14193 33.5326L9.46423 31.2104C10.1996 31.6131 10.9766 31.9346 11.7815 32.1694V35.454C11.7815 35.5989 11.8391 35.7379 11.9416 35.8404C12.0441 35.9429 12.1831 36.0005 12.328 36.0005H17.7723C17.9173 36.0005 18.0563 35.9429 18.1588 35.8404C18.2613 35.7379 18.3189 35.5989 18.3189 35.454V32.168C19.1237 31.9333 19.9007 31.6117 20.6361 31.2091L22.958 33.5314C23.0606 33.6339 23.1996 33.6915 23.3446 33.6915C23.4896 33.6915 23.6287 33.6339 23.7312 33.5314L27.5821 29.6806C27.7955 29.4671 27.7955 29.1208 27.5821 28.9072C27.3686 28.6937 27.0227 28.6938 26.8093 28.9072H26.8084Z" fill="black"/>
</g>
<defs>
<clipPath id="clip0_25_1343">
<rect width="30" height="30" fill="white" transform="translate(0 6)"/>
</clipPath>
</defs>
</svg>
